<?xml version="1.0" encoding="utf-8"?>
<!-- Generator: Adobe Illustrator 26.2.1, SVG Export Plug-In . SVG Version: 6.00 Build 0)  -->
<svg version="1.1" id="Layer_1" xmlns="http://www.w3.org/2000/svg" xmlns:xlink="http://www.w3.org/1999/xlink" x="0px" y="0px"
	 viewBox="0 0 450 450" style="enable-background:new 0 0 450 450;" xml:space="preserve">
<style type="text/css">
	.st0{fill:#FFFFFF;}
</style>
<g>
	
		<ellipse transform="matrix(0.9677 -0.252 0.252 0.9677 -49.5715 63.9892)" class="st0" cx="225" cy="225.5" rx="183.34" ry="145.83"/>
	<g>
		<g>
			<path d="M290.62,176.89c11.09,0.23,22.18,0.45,33.27,0.68c-3.25-3.25-6.5-6.5-9.75-9.75c1.55,13.52,2.06,27.19,2.8,40.76
				c0.91,16.82,1.71,33.65,2.78,50.47c0.42,6.53,0.82,13.08,1.57,19.58c3.25-3.25,6.5-6.5,9.75-9.75
				c-30.36-0.76-60.71-1.51-91.07-2.27c-8.57-0.21-17.13-0.43-25.7-0.64c-5.19-0.13-9.86,4.57-9.75,9.75
				c0.17,8.43,1,16.79,2.34,25.11c1,6.2,2.28,12.36,3.13,18.59c-0.12-0.86-0.23-1.73-0.35-2.59c0.81,6.05,1.23,12.13,1.36,18.23
				c4.89-2.81,9.78-5.61,14.67-8.42c-7.71-4.58-15.1-9.67-22.2-15.14c0.66,0.51,1.32,1.02,1.97,1.52
				c-13.58-10.5-26.02-22.33-38.37-34.22c-12.33-11.87-24.68-23.78-38.13-34.4c-8.45-6.67-17.18-12.94-26.44-18.44
				c0.66,5.1,1.32,10.21,1.97,15.31c12.99-16.56,25.98-33.13,38.97-49.69c12.99-16.56,25.98-33.13,38.97-49.69
				c7.29-9.3,14.58-18.59,21.87-27.89c-5.55-2.3-11.1-4.6-16.64-6.89c0.96,8.09,1.8,16.19,2.4,24.31
				c0.45,6.08,0.83,12.16,1.39,18.24c0.49,5.23,1.06,10.46,1.69,15.68c0.3,2.55,0.85,5.05,2.86,6.89c1.93,1.77,4.23,2.8,6.89,2.86
				c14.37,0.29,28.74,0.59,43.11,0.88c5.1,0.1,9.98-4.56,9.75-9.75c-0.24-5.37-4.28-9.64-9.75-9.75
				c-14.37-0.29-28.74-0.59-43.11-0.88c3.25,3.25,6.5,6.5,9.75,9.75c-0.96-8.09-1.8-16.19-2.4-24.31
				c-0.45-6.08-0.83-12.16-1.39-18.24c-0.49-5.23-1.06-10.46-1.69-15.68c-0.21-1.73-0.43-3.39-1.33-4.92
				c-1.07-1.83-2.73-3.17-4.66-3.99c-1.66-0.7-3.27-0.91-5.05-0.67c-1.92,0.26-4.35,1.09-5.6,2.68
				c-12.99,16.56-25.98,33.13-38.97,49.69c-12.99,16.56-25.98,33.13-38.97,49.69c-7.29,9.3-14.58,18.59-21.87,27.89
				c-1.21,1.22-2.04,2.65-2.51,4.3c-0.41,1.3-0.46,2.59-0.17,3.89c0.4,3.01,2.01,5.55,4.65,7.12c7.71,4.58,15.1,9.67,22.2,15.14
				c-0.66-0.51-1.32-1.02-1.97-1.52c13.58,10.5,26.02,22.33,38.37,34.22c12.33,11.87,24.68,23.78,38.13,34.4
				c8.45,6.67,17.18,12.94,26.44,18.44c6.27,3.72,14.82-1.02,14.67-8.42c-0.17-8.43-1-16.79-2.34-25.11
				c-1-6.2-2.28-12.36-3.13-18.59c0.12,0.86,0.23,1.73,0.35,2.59c-0.81-6.05-1.23-12.13-1.36-18.23c-3.25,3.25-6.5,6.5-9.75,9.75
				c30.36,0.76,60.71,1.51,91.07,2.27c8.57,0.21,17.13,0.43,25.7,0.64c2.35,0.06,5.29-1.11,6.89-2.86c1.63-1.78,3.14-4.38,2.86-6.89
				c-1.55-13.52-2.06-27.19-2.8-40.76c-0.91-16.82-1.71-33.65-2.78-50.47c-0.42-6.53-0.82-13.08-1.57-19.58
				c-0.29-2.55-0.86-5.06-2.86-6.89c-1.93-1.77-4.23-2.8-6.89-2.86c-11.09-0.23-22.18-0.45-33.27-0.68c-5.1-0.1-9.98,4.56-9.75,9.75
				C281.11,172.51,285.15,176.77,290.62,176.89L290.62,176.89z"/>
		</g>
	</g>
</g>
</svg>
