<?xml version="1.0" encoding="utf-8"?>
<!-- Generator: Adobe Illustrator 26.2.1, SVG Export Plug-In . SVG Version: 6.00 Build 0)  -->
<svg version="1.1" id="Layer_1" xmlns="http://www.w3.org/2000/svg" xmlns:xlink="http://www.w3.org/1999/xlink" x="0px" y="0px"
	 viewBox="0 0 450 450" style="enable-background:new 0 0 450 450;" xml:space="preserve">
<style type="text/css">
	.st0{fill:#3E8EDE;}
</style>
<g>
	<g>
		<g>
			<path class="st0" d="M31.53,140.98c0.01-1.14,0.04-2.28,0.13-3.42c0.05-0.66,0.13-1.31,0.19-1.96c0.1-1.09-0.19,1.32-0.16,1.21
				c0.09-0.36,0.12-0.74,0.18-1.1c0.4-2.26,0.97-4.48,1.7-6.65c0.2-0.6,0.44-1.19,0.65-1.79c0.58-1.62-0.88,1.89-0.15,0.33
				c0.49-1.06,0.99-2.11,1.55-3.14c0.51-0.94,1.05-1.87,1.63-2.77c0.34-0.53,0.68-1.05,1.04-1.56c0.24-0.34,1.53-2.05,0.5-0.73
				c-1.02,1.31,0.16-0.17,0.4-0.47c0.34-0.41,0.69-0.81,1.05-1.21c0.77-0.86,1.58-1.69,2.41-2.48c0.84-0.8,1.71-1.55,2.6-2.29
				c0.2-0.17,0.44-0.32,0.62-0.5c0.07-0.07-1.77,1.28-0.91,0.71c0.52-0.34,1.01-0.73,1.52-1.08c1.92-1.31,3.95-2.47,6.05-3.46
				c0.48-0.23,1.01-0.41,1.48-0.67c0.09-0.05-2.07,0.82-1.08,0.47c0.26-0.09,0.51-0.2,0.76-0.29c1.19-0.45,2.4-0.84,3.63-1.18
				c1.06-0.3,2.13-0.55,3.21-0.77c0.54-0.11,1.09-0.2,1.64-0.3c1.59-0.29-2.29,0.25-0.1,0.01c1.61-0.17,3.22-0.25,4.83-0.26
				c0.2,0,0.4,0,0.6,0c1.26,0,2.53,0,3.79,0c5.59,0,11.18,0,16.78,0c8.91,0,17.81,0,26.72,0c11.44,0,22.89,0,34.33,0
				c13.01,0,26.02,0,39.03,0c13.84,0,27.68,0,41.53,0c13.68,0,27.36,0,41.04,0c12.79,0,25.58,0,38.36,0c10.91,0,21.83,0,32.74,0
				c8.28,0,16.56,0,24.84,0c4.72,0,9.44,0,14.17,0c0.75,0,1.51,0,2.26,0c1.06,0.01,2.12,0.04,3.17,0.11
				c0.56,0.04,1.12,0.09,1.69,0.15c0.28,0.03,0.56,0.08,0.84,0.1c0.12,0.01-2.28-0.36-1.21-0.15c1.27,0.25,2.54,0.45,3.8,0.76
				c1.06,0.26,2.12,0.56,3.16,0.9c0.52,0.17,1.03,0.35,1.54,0.53c0.25,0.09,0.51,0.19,0.76,0.29c1.24,0.46-0.55-0.22-0.83-0.37
				c2.06,1.12,4.19,2,6.18,3.25c0.91,0.57,1.77,1.19,2.65,1.8c1.34,0.93-1.81-1.52-0.08-0.05c0.48,0.4,0.95,0.8,1.42,1.21
				c1.66,1.47,3.21,3.07,4.63,4.77c0.23,0.27,0.44,0.56,0.68,0.83c0.67,0.77-0.75-1-0.71-0.92c0.25,0.45,0.64,0.87,0.94,1.3
				c0.66,0.95,1.29,1.93,1.88,2.93c0.54,0.93,1.06,1.87,1.53,2.83c0.28,0.56,0.54,1.14,0.8,1.71c0.66,1.42-0.81-2.07-0.06-0.08
				c0.84,2.22,1.51,4.5,1.99,6.82c0.11,0.54,0.22,1.09,0.31,1.63c0.05,0.27,0.07,0.56,0.13,0.82c0.03,0.12-0.26-2.29-0.16-1.21
				c0.11,1.22,0.24,2.44,0.29,3.66c0.03,0.75,0.03,1.5,0.03,2.26c0.01,4.7,0,9.41,0,14.11c0,9.71,0,19.42,0,29.13
				c0,12.69,0,25.38,0,38.07c0,13.85,0,27.71,0,41.56c0,12.95,0,25.91,0,38.86c0,10.24,0,20.48,0,30.71c0,5.49,0,10.99,0,16.48
				c0,0.42,0,0.84,0,1.26c0,0.33,0,0.66-0.01,0.98c-0.02,1.23-0.09,2.46-0.22,3.68c-0.03,0.28-0.07,0.56-0.09,0.84
				c-0.1,1.09,0.19-1.32,0.16-1.21c-0.15,0.63-0.21,1.28-0.33,1.92c-0.45,2.33-1.09,4.63-1.91,6.86c-0.14,0.37-0.87,2.14-0.2,0.6
				c0.67-1.54-0.1,0.21-0.27,0.57c-0.53,1.14-1.11,2.25-1.73,3.34c-0.53,0.93-1.1,1.84-1.69,2.73c-0.3,0.44-0.61,0.88-0.92,1.31
				c-1.2,1.72,1.06-1.25,0.07-0.07c-1.49,1.77-3.03,3.47-4.75,5.03c-0.78,0.71-1.7,1.32-2.44,2.07c-0.07,0.07,1.77-1.28,0.91-0.71
				c-0.22,0.15-0.43,0.32-0.65,0.47c-0.58,0.41-1.17,0.82-1.77,1.2c-1.89,1.22-3.86,2.26-5.89,3.21c-1.95,0.91,1.61-0.6,0.09-0.04
				c-0.51,0.19-1.02,0.38-1.53,0.56c-1.12,0.39-2.25,0.73-3.4,1.03c-1.07,0.28-2.15,0.52-3.23,0.71c-0.76,0.14-2.94,0.29,0.11,0.03
				c-0.65,0.05-1.3,0.15-1.96,0.2c-1.68,0.14-3.36,0.15-5.04,0.15c-4.17,0-8.34,0-12.51,0c-7.85,0-15.7,0-23.54,0
				c-10.6,0-21.2,0-31.8,0c-12.59,0-25.18,0-37.77,0c-13.6,0-27.2,0-40.8,0c-13.88,0-27.76,0-41.64,0c-13.17,0-26.33,0-39.5,0
				c-11.72,0-23.43,0-35.15,0c-9.29,0-18.59,0-27.88,0c-6.1,0-12.2,0-18.3,0c-3.31,0-6.67,0.11-9.98-0.17
				c-0.46-0.04-2.66-0.3-0.93-0.08c1.72,0.22-0.23-0.06-0.63-0.13c-1.18-0.21-2.34-0.47-3.5-0.78c-1.06-0.28-2.1-0.6-3.13-0.96
				c-0.6-0.21-1.18-0.45-1.78-0.66c-0.99-0.35,1.17,0.52,1.08,0.47c-0.31-0.17-0.66-0.29-0.99-0.44c-2.11-0.97-4.15-2.11-6.09-3.39
				c-0.45-0.3-0.89-0.6-1.32-0.91c-0.22-0.15-0.43-0.33-0.65-0.47c-0.85-0.56,0.98,0.78,0.91,0.71c-0.8-0.81-1.79-1.47-2.63-2.25
				c-1.71-1.58-3.19-3.32-4.72-5.06c-0.67-0.77,0.75,1,0.71,0.92c-0.12-0.23-0.33-0.43-0.47-0.64c-0.31-0.44-0.62-0.87-0.92-1.31
				c-0.7-1.04-1.35-2.1-1.96-3.2c-0.52-0.94-1.01-1.9-1.47-2.87c-0.16-0.35-0.94-2.11-0.27-0.57c0.67,1.55-0.15-0.45-0.3-0.86
				c-0.81-2.24-1.43-4.54-1.87-6.87c-0.1-0.54-0.15-1.11-0.28-1.64c-0.03-0.12,0.26,2.29,0.16,1.21c-0.03-0.28-0.06-0.56-0.09-0.84
				c-0.13-1.32-0.2-2.64-0.22-3.97c0-0.25,0-0.5,0-0.75c0-0.55,0-1.1,0-1.65c0-2.62,0-5.23,0-7.85c0-9.82,0-19.64,0-29.46
				c0-13.31,0-26.63,0-39.94c0-13.41,0-26.83,0-40.24c0-10.36,0-20.72,0-31.08c0-3.94,0-7.89,0-11.83c0-5.1-4.48-9.99-9.75-9.75
				c-5.28,0.24-9.75,4.28-9.75,9.75c0,4.32,0,8.65,0,12.97c0,10.71,0,21.42,0,32.13c0,13.7,0,27.4,0,41.09c0,13.29,0,26.58,0,39.87
				c0,9.45,0,18.91,0,28.36c0,7.89-0.07,15.67,2.24,23.36c3.02,10.09,9.01,19.59,17.18,26.27c9.05,7.4,19.51,11.74,31.16,12.83
				c3.43,0.32,6.93,0.2,10.38,0.2c6.21,0,12.43,0,18.64,0c9.51,0,19.01,0,28.52,0c11.91,0,23.81,0,35.72,0c13.41,0,26.82,0,40.24,0
				c14.03,0,28.05,0,42.08,0c13.68,0,27.37,0,41.05,0c12.58,0,25.17,0,37.75,0c10.52,0,21.04,0,31.57,0c7.57,0,15.14,0,22.71,0
				c3.72,0,7.44,0,11.17,0c15.38-0.01,30.52-6.15,40.95-17.61c9.8-10.77,14.59-24.38,14.59-38.85c0-5.78,0-11.56,0-17.34
				c0-10.52,0-21.03,0-31.55c0-13.18,0-26.36,0-39.54c0-13.97,0-27.95,0-41.92c0-12.7,0-25.4,0-38.1c0-9.42,0-18.84,0-28.26
				c0-4.13,0.02-8.26,0-12.39c-0.08-19.65-10.77-38.37-28.02-47.98c-9.07-5.05-19.01-7-29.29-7c-4.86,0-9.73,0-14.59,0
				c-8.42,0-16.84,0-25.26,0c-11.16,0-22.33,0-33.49,0c-12.99,0-25.97,0-38.96,0c-13.91,0-27.83,0-41.74,0c-13.95,0-27.89,0-41.84,0
				c-13.09,0-26.18,0-39.26,0c-11.34,0-22.67,0-34.01,0c-8.69,0-17.38,0-26.08,0c-5.15,0-10.31,0-15.46,0c-0.97,0-1.94,0-2.91,0
				c-8.1,0.03-15.77,1.83-23.15,5.09c-19.37,8.55-31.74,28.81-31.88,49.76c-0.03,5.1,4.51,9.98,9.75,9.75
				C27.09,150.49,31.5,146.44,31.53,140.98L31.53,140.98z"/>
		</g>
	</g>
	<g>
		<g>
			<g>
				<path class="st0" d="M94.23,54.07c0,9.22,0,18.45,0,27.67c0,14.64,0,29.28,0,43.92c0,3.36,0,6.71,0,10.07
					c0,5.1,4.48,9.99,9.75,9.75c5.28-0.24,9.75-4.28,9.75-9.75c0-9.22,0-18.45,0-27.67c0-14.64,0-29.28,0-43.92
					c0-3.36,0-6.71,0-10.07c0-5.1-4.48-9.99-9.75-9.75C98.7,44.55,94.23,48.6,94.23,54.07L94.23,54.07z"/>
			</g>
		</g>
		<g>
			<g>
				<path class="st0" d="M336.26,54.07c0,9.22,0,18.45,0,27.67c0,14.64,0,29.28,0,43.92c0,3.36,0,6.71,0,10.07
					c0,5.1,4.48,9.99,9.75,9.75c5.28-0.24,9.75-4.28,9.75-9.75c0-9.22,0-18.45,0-27.67c0-14.64,0-29.28,0-43.92
					c0-3.36,0-6.71,0-10.07c0-5.1-4.48-9.99-9.75-9.75C340.73,44.55,336.26,48.6,336.26,54.07L336.26,54.07z"/>
			</g>
		</g>
	</g>
	<g>
		<g>
			<path class="st0" d="M60.43,181c2.95,0,5.91,0,8.86,0c7.97,0,15.94,0,23.9,0c11.81,0,23.63,0,35.44,0c14.41,0,28.83,0,43.24,0
				c15.73,0,31.46,0,47.19,0c15.99,0,31.97,0,47.96,0c14.8,0,29.61,0,44.42,0c12.56,0,25.11,0,37.67,0c9.03,0,18.05,0,27.08,0
				c4.27,0,8.53,0.04,12.8,0c0.19,0,0.37,0,0.56,0c5.1,0,9.99-4.48,9.75-9.75c-0.24-5.28-4.28-9.75-9.75-9.75c-2.95,0-5.91,0-8.86,0
				c-7.97,0-15.94,0-23.9,0c-11.81,0-23.63,0-35.44,0c-14.41,0-28.83,0-43.24,0c-15.73,0-31.46,0-47.19,0c-15.99,0-31.97,0-47.96,0
				c-14.81,0-29.61,0-44.42,0c-12.56,0-25.11,0-37.67,0c-9.03,0-18.05,0-27.08,0c-4.27,0-8.53-0.04-12.8,0c-0.19,0-0.37,0-0.56,0
				c-5.1,0-9.99,4.48-9.75,9.75C50.92,176.54,54.97,181,60.43,181L60.43,181z"/>
		</g>
	</g>
	<g>
		<g>
			<g>
				<path class="st0" d="M129.83,253.92c-6.58,0-13.16,0-19.74,0c-10.48,0-20.97,0-31.45,0c-2.4,0-4.8,0-7.2,0
					c3.25,3.25,6.5,6.5,9.75,9.75c0-5.47,0-10.95,0-16.42c0-8.72,0-17.43,0-26.15c0-1.99,0-3.98,0-5.97
					c-3.25,3.25-6.5,6.5-9.75,9.75c6.58,0,13.16,0,19.74,0c10.48,0,20.97,0,31.45,0c2.4,0,4.8,0,7.2,0c-3.25-3.25-6.5-6.5-9.75-9.75
					c0,5.47,0,10.95,0,16.42c0,8.72,0,17.43,0,26.15c0,1.99,0,3.98,0,5.97c0,5.1,4.48,9.99,9.75,9.75c5.28-0.24,9.75-4.28,9.75-9.75
					c0-5.47,0-10.95,0-16.42c0-8.72,0-17.43,0-26.15c0-1.99,0-3.98,0-5.97c0-5.27-4.47-9.75-9.75-9.75c-6.58,0-13.16,0-19.74,0
					c-10.48,0-20.97,0-31.45,0c-2.4,0-4.8,0-7.2,0c-5.27,0-9.75,4.47-9.75,9.75c0,5.47,0,10.95,0,16.42c0,8.72,0,17.43,0,26.15
					c0,1.99,0,3.98,0,5.97c0,5.27,4.47,9.75,9.75,9.75c6.58,0,13.16,0,19.74,0c10.48,0,20.97,0,31.45,0c2.4,0,4.8,0,7.2,0
					c5.1,0,9.99-4.48,9.75-9.75C139.35,258.38,135.3,253.92,129.83,253.92z"/>
			</g>
		</g>
		<g>
			<g>
				<path class="st0" d="M212.74,253.92c-6.58,0-13.16,0-19.74,0c-10.48,0-20.97,0-31.45,0c-2.4,0-4.8,0-7.2,0
					c3.25,3.25,6.5,6.5,9.75,9.75c0-5.47,0-10.95,0-16.42c0-8.72,0-17.43,0-26.15c0-1.99,0-3.98,0-5.97
					c-3.25,3.25-6.5,6.5-9.75,9.75c6.58,0,13.16,0,19.74,0c10.48,0,20.97,0,31.45,0c2.4,0,4.8,0,7.2,0c-3.25-3.25-6.5-6.5-9.75-9.75
					c0,5.47,0,10.95,0,16.42c0,8.72,0,17.43,0,26.15c0,1.99,0,3.98,0,5.97c0,5.1,4.48,9.99,9.75,9.75c5.28-0.24,9.75-4.28,9.75-9.75
					c0-5.47,0-10.95,0-16.42c0-8.72,0-17.43,0-26.15c0-1.99,0-3.98,0-5.97c0-5.27-4.47-9.75-9.75-9.75c-6.58,0-13.16,0-19.74,0
					c-10.48,0-20.97,0-31.45,0c-2.4,0-4.8,0-7.2,0c-5.27,0-9.75,4.47-9.75,9.75c0,5.47,0,10.95,0,16.42c0,8.72,0,17.43,0,26.15
					c0,1.99,0,3.98,0,5.97c0,5.27,4.47,9.75,9.75,9.75c6.58,0,13.16,0,19.74,0c10.48,0,20.97,0,31.45,0c2.4,0,4.8,0,7.2,0
					c5.1,0,9.99-4.48,9.75-9.75C222.25,258.38,218.2,253.92,212.74,253.92z"/>
			</g>
		</g>
		<g>
			<g>
				<path class="st0" d="M295.64,253.92c-6.58,0-13.16,0-19.74,0c-10.48,0-20.97,0-31.45,0c-2.4,0-4.8,0-7.2,0
					c3.25,3.25,6.5,6.5,9.75,9.75c0-5.47,0-10.95,0-16.42c0-8.72,0-17.43,0-26.15c0-1.99,0-3.98,0-5.97
					c-3.25,3.25-6.5,6.5-9.75,9.75c6.58,0,13.16,0,19.74,0c10.48,0,20.97,0,31.45,0c2.4,0,4.8,0,7.2,0c-3.25-3.25-6.5-6.5-9.75-9.75
					c0,5.47,0,10.95,0,16.42c0,8.72,0,17.43,0,26.15c0,1.99,0,3.98,0,5.97c0,5.1,4.48,9.99,9.75,9.75c5.28-0.24,9.75-4.28,9.75-9.75
					c0-5.47,0-10.95,0-16.42c0-8.72,0-17.43,0-26.15c0-1.99,0-3.98,0-5.97c0-5.27-4.47-9.75-9.75-9.75c-6.58,0-13.16,0-19.74,0
					c-10.48,0-20.97,0-31.45,0c-2.4,0-4.8,0-7.2,0c-5.27,0-9.75,4.47-9.75,9.75c0,5.47,0,10.95,0,16.42c0,8.72,0,17.43,0,26.15
					c0,1.99,0,3.98,0,5.97c0,5.27,4.47,9.75,9.75,9.75c6.58,0,13.16,0,19.74,0c10.48,0,20.97,0,31.45,0c2.4,0,4.8,0,7.2,0
					c5.1,0,9.99-4.48,9.75-9.75C305.16,258.38,301.11,253.92,295.64,253.92z"/>
			</g>
		</g>
		<g>
			<g>
				<path class="st0" d="M378.55,253.92c-6.58,0-13.16,0-19.74,0c-10.48,0-20.97,0-31.45,0c-2.4,0-4.8,0-7.2,0
					c3.25,3.25,6.5,6.5,9.75,9.75c0-5.47,0-10.95,0-16.42c0-8.72,0-17.43,0-26.15c0-1.99,0-3.98,0-5.97
					c-3.25,3.25-6.5,6.5-9.75,9.75c6.58,0,13.16,0,19.74,0c10.48,0,20.97,0,31.45,0c2.4,0,4.8,0,7.2,0c-3.25-3.25-6.5-6.5-9.75-9.75
					c0,5.47,0,10.95,0,16.42c0,8.72,0,17.43,0,26.15c0,1.99,0,3.98,0,5.97c0,5.1,4.48,9.99,9.75,9.75c5.28-0.24,9.75-4.28,9.75-9.75
					c0-5.47,0-10.95,0-16.42c0-8.72,0-17.43,0-26.15c0-1.99,0-3.98,0-5.97c0-5.27-4.47-9.75-9.75-9.75c-6.58,0-13.16,0-19.74,0
					c-10.48,0-20.97,0-31.45,0c-2.4,0-4.8,0-7.2,0c-5.27,0-9.75,4.47-9.75,9.75c0,5.47,0,10.95,0,16.42c0,8.72,0,17.43,0,26.15
					c0,1.99,0,3.98,0,5.97c0,5.27,4.47,9.75,9.75,9.75c6.58,0,13.16,0,19.74,0c10.48,0,20.97,0,31.45,0c2.4,0,4.8,0,7.2,0
					c5.1,0,9.99-4.48,9.75-9.75C388.06,258.38,384.01,253.92,378.55,253.92z"/>
			</g>
		</g>
		<g>
			<g>
				<path class="st0" d="M129.83,331.84c-6.58,0-13.16,0-19.74,0c-10.48,0-20.97,0-31.45,0c-2.4,0-4.8,0-7.2,0
					c3.25,3.25,6.5,6.5,9.75,9.75c0-5.47,0-10.95,0-16.42c0-8.72,0-17.43,0-26.15c0-1.99,0-3.98,0-5.97
					c-3.25,3.25-6.5,6.5-9.75,9.75c6.58,0,13.16,0,19.74,0c10.48,0,20.97,0,31.45,0c2.4,0,4.8,0,7.2,0c-3.25-3.25-6.5-6.5-9.75-9.75
					c0,5.47,0,10.95,0,16.42c0,8.72,0,17.43,0,26.15c0,1.99,0,3.98,0,5.97c0,5.1,4.48,9.99,9.75,9.75c5.28-0.24,9.75-4.28,9.75-9.75
					c0-5.47,0-10.95,0-16.42c0-8.72,0-17.43,0-26.15c0-1.99,0-3.98,0-5.97c0-5.27-4.47-9.75-9.75-9.75c-6.58,0-13.16,0-19.74,0
					c-10.48,0-20.97,0-31.45,0c-2.4,0-4.8,0-7.2,0c-5.27,0-9.75,4.47-9.75,9.75c0,5.47,0,10.95,0,16.42c0,8.72,0,17.43,0,26.15
					c0,1.99,0,3.98,0,5.97c0,5.27,4.47,9.75,9.75,9.75c6.58,0,13.16,0,19.74,0c10.48,0,20.97,0,31.45,0c2.4,0,4.8,0,7.2,0
					c5.1,0,9.99-4.48,9.75-9.75C139.35,336.3,135.3,331.84,129.83,331.84z"/>
			</g>
		</g>
		<g>
			<g>
				<path class="st0" d="M212.74,331.84c-6.58,0-13.16,0-19.74,0c-10.48,0-20.97,0-31.45,0c-2.4,0-4.8,0-7.2,0
					c3.25,3.25,6.5,6.5,9.75,9.75c0-5.47,0-10.95,0-16.42c0-8.72,0-17.43,0-26.15c0-1.99,0-3.98,0-5.97
					c-3.25,3.25-6.5,6.5-9.75,9.75c6.58,0,13.16,0,19.74,0c10.48,0,20.97,0,31.45,0c2.4,0,4.8,0,7.2,0c-3.25-3.25-6.5-6.5-9.75-9.75
					c0,5.47,0,10.95,0,16.42c0,8.72,0,17.43,0,26.15c0,1.99,0,3.98,0,5.97c0,5.1,4.48,9.99,9.75,9.75c5.28-0.24,9.75-4.28,9.75-9.75
					c0-5.47,0-10.95,0-16.42c0-8.72,0-17.43,0-26.15c0-1.99,0-3.98,0-5.97c0-5.27-4.47-9.75-9.75-9.75c-6.58,0-13.16,0-19.74,0
					c-10.48,0-20.97,0-31.45,0c-2.4,0-4.8,0-7.2,0c-5.27,0-9.75,4.47-9.75,9.75c0,5.47,0,10.95,0,16.42c0,8.72,0,17.43,0,26.15
					c0,1.99,0,3.98,0,5.97c0,5.27,4.47,9.75,9.75,9.75c6.58,0,13.16,0,19.74,0c10.48,0,20.97,0,31.45,0c2.4,0,4.8,0,7.2,0
					c5.1,0,9.99-4.48,9.75-9.75C222.25,336.3,218.2,331.84,212.74,331.84z"/>
			</g>
		</g>
		<g>
			<g>
				<path class="st0" d="M295.64,331.84c-6.58,0-13.16,0-19.74,0c-10.48,0-20.97,0-31.45,0c-2.4,0-4.8,0-7.2,0
					c3.25,3.25,6.5,6.5,9.75,9.75c0-5.47,0-10.95,0-16.42c0-8.72,0-17.43,0-26.15c0-1.99,0-3.98,0-5.97
					c-3.25,3.25-6.5,6.5-9.75,9.75c6.58,0,13.16,0,19.74,0c10.48,0,20.97,0,31.45,0c2.4,0,4.8,0,7.2,0c-3.25-3.25-6.5-6.5-9.75-9.75
					c0,5.47,0,10.95,0,16.42c0,8.72,0,17.43,0,26.15c0,1.99,0,3.98,0,5.97c0,5.1,4.48,9.99,9.75,9.75c5.28-0.24,9.75-4.28,9.75-9.75
					c0-5.47,0-10.95,0-16.42c0-8.72,0-17.43,0-26.15c0-1.99,0-3.98,0-5.97c0-5.27-4.47-9.75-9.75-9.75c-6.58,0-13.16,0-19.74,0
					c-10.48,0-20.97,0-31.45,0c-2.4,0-4.8,0-7.2,0c-5.27,0-9.75,4.47-9.75,9.75c0,5.47,0,10.95,0,16.42c0,8.72,0,17.43,0,26.15
					c0,1.99,0,3.98,0,5.97c0,5.27,4.47,9.75,9.75,9.75c6.58,0,13.16,0,19.74,0c10.48,0,20.97,0,31.45,0c2.4,0,4.8,0,7.2,0
					c5.1,0,9.99-4.48,9.75-9.75C305.16,336.3,301.11,331.84,295.64,331.84z"/>
			</g>
		</g>
		<g>
			<g>
				<path class="st0" d="M378.55,331.84c-6.58,0-13.16,0-19.74,0c-10.48,0-20.97,0-31.45,0c-2.4,0-4.8,0-7.2,0
					c3.25,3.25,6.5,6.5,9.75,9.75c0-5.47,0-10.95,0-16.42c0-8.72,0-17.43,0-26.15c0-1.99,0-3.98,0-5.97
					c-3.25,3.25-6.5,6.5-9.75,9.75c6.58,0,13.16,0,19.74,0c10.48,0,20.97,0,31.45,0c2.4,0,4.8,0,7.2,0c-3.25-3.25-6.5-6.5-9.75-9.75
					c0,5.47,0,10.95,0,16.42c0,8.72,0,17.43,0,26.15c0,1.99,0,3.98,0,5.97c0,5.1,4.48,9.99,9.75,9.75c5.28-0.24,9.75-4.28,9.75-9.75
					c0-5.47,0-10.95,0-16.42c0-8.72,0-17.43,0-26.15c0-1.99,0-3.98,0-5.97c0-5.27-4.47-9.75-9.75-9.75c-6.58,0-13.16,0-19.74,0
					c-10.48,0-20.97,0-31.45,0c-2.4,0-4.8,0-7.2,0c-5.27,0-9.75,4.47-9.75,9.75c0,5.47,0,10.95,0,16.42c0,8.72,0,17.43,0,26.15
					c0,1.99,0,3.98,0,5.97c0,5.27,4.47,9.75,9.75,9.75c6.58,0,13.16,0,19.74,0c10.48,0,20.97,0,31.45,0c2.4,0,4.8,0,7.2,0
					c5.1,0,9.99-4.48,9.75-9.75C388.06,336.3,384.01,331.84,378.55,331.84z"/>
			</g>
		</g>
	</g>
</g>
</svg>
