<?xml version="1.0" encoding="utf-8"?>
<!-- Generator: Adobe Illustrator 26.2.1, SVG Export Plug-In . SVG Version: 6.00 Build 0)  -->
<svg version="1.1" id="Layer_1" xmlns="http://www.w3.org/2000/svg" xmlns:xlink="http://www.w3.org/1999/xlink" x="0px" y="0px"
	 viewBox="0 0 450 450" style="enable-background:new 0 0 450 450;" xml:space="preserve">
<style type="text/css">
	.st0{fill:#3E8EDE;}
</style>
<g>
	<g>
		<g>
			<path class="st0" d="M115.14,273.84c8.13-5.84,16.88-10.77,26.11-14.67c-0.78,0.33-1.55,0.66-2.33,0.98
				c10.81-4.54,22.18-7.63,33.79-9.21c-0.86,0.12-1.73,0.23-2.59,0.35c11.81-1.56,23.79-1.57,35.61-0.01
				c-0.86-0.12-1.73-0.23-2.59-0.35c11.65,1.57,23.05,4.67,33.88,9.22c-0.78-0.33-1.55-0.66-2.33-0.98
				c10.58,4.47,20.54,10.3,29.64,17.31c-0.66-0.51-1.32-1.02-1.97-1.52c9.02,6.99,17.13,15.09,24.11,24.11
				c-0.51-0.66-1.02-1.32-1.52-1.97c7.01,9.1,12.83,19.06,17.31,29.64c-0.33-0.78-0.66-1.55-0.98-2.33
				c4.55,10.84,7.65,22.24,9.22,33.88c-0.12-0.86-0.23-1.73-0.35-2.59c1.46,11.06,1.54,22.26,0.26,33.35
				c3.25-3.25,6.5-6.5,9.75-9.75c-2.37,0-4.74,0-7.12,0c-6.4,0-12.8,0-19.19,0c-9.49,0-18.97,0-28.46,0c-11.57,0-23.15,0-34.72,0
				c-12.68,0-25.35,0-38.03,0c-12.8,0-25.59,0-38.39,0c-11.89,0-23.78,0-35.67,0c-10.12,0-20.23,0-30.35,0c-7.22,0-14.45,0-21.67,0
				c-3.44,0-6.88-0.04-10.31,0c-0.15,0-0.3,0-0.44,0c3.25,3.25,6.5,6.5,9.75,9.75c-1.28-11.07-1.19-22.26,0.26-33.3
				c-0.12,0.86-0.23,1.73-0.35,2.59c1.58-11.69,4.68-23.13,9.26-34c-0.33,0.78-0.66,1.55-0.98,2.33c1.43-3.37,2.99-6.67,4.68-9.91
				c1.21-2.31,1.69-4.95,0.98-7.51c-0.62-2.26-2.37-4.71-4.48-5.83c-4.48-2.37-10.82-1.33-13.34,3.5
				c-10.18,19.53-15.84,41.13-16.39,63.15c-0.16,6.34,0.14,12.69,0.87,18.99c0.29,2.55,0.86,5.06,2.86,6.89
				c1.91,1.75,4.25,2.86,6.89,2.86c2.37,0,4.74,0,7.12,0c6.4,0,12.8,0,19.19,0c9.49,0,18.97,0,28.46,0c11.57,0,23.15,0,34.72,0
				c12.68,0,25.35,0,38.03,0c12.8,0,25.59,0,38.39,0c11.89,0,23.78,0,35.67,0c10.12,0,20.23,0,30.35,0c7.22,0,14.45,0,21.67,0
				c3.44,0,6.88,0.03,10.31,0c0.15,0,0.3,0,0.44,0c2.39,0,5.25-1.06,6.89-2.86c0.51-0.66,1.02-1.32,1.52-1.97
				c0.88-1.52,1.33-3.16,1.33-4.92c2.46-21.33-0.08-43.53-7.43-63.71c-6.86-18.85-17.44-36.11-31.3-50.63
				c-13.8-14.47-30.56-25.64-48.96-33.34c-18.63-7.8-39.15-11.4-59.33-10.64c-24.88,0.94-49.47,8.31-70.57,21.58
				c-2.38,1.5-4.72,3.08-7,4.72c-2.11,1.52-3.77,3.23-4.48,5.83c-0.64,2.33-0.35,5.44,0.98,7.51c1.34,2.08,3.34,3.91,5.83,4.48
				C110.05,275.37,113.04,275.35,115.14,273.84L115.14,273.84z"/>
		</g>
	</g>
	<g>
		<g>
			<path class="st0" d="M304.85,283c0.23,0.03,0.46,0.06,0.69,0.09c-0.86-0.12-1.73-0.23-2.59-0.35c9.61,1.31,19.02,3.8,27.96,7.56
				c-0.78-0.33-1.55-0.66-2.33-0.98c8.03,3.4,15.61,7.78,22.53,13.1c-0.66-0.51-1.32-1.02-1.97-1.52
				c6.62,5.12,12.56,11.04,17.7,17.65c-0.51-0.66-1.02-1.32-1.52-1.97c5.3,6.86,9.67,14.39,13.05,22.38
				c-0.33-0.78-0.66-1.55-0.98-2.33c3.62,8.64,6.04,17.73,7.3,27c-0.12-0.86-0.23-1.73-0.35-2.59c1.24,9.29,1.36,18.71,0.29,28.02
				c3.25-3.25,6.5-6.5,9.75-9.75c-5.36,0-10.71,0-16.07,0c-8.54,0-17.09,0-25.63,0c-1.97,0-3.94,0-5.91,0
				c-5.1,0-9.99,4.48-9.75,9.75c0.24,5.28,4.28,9.75,9.75,9.75c5.36,0,10.71,0,16.07,0c8.54,0,17.09,0,25.63,0c1.97,0,3.94,0,5.91,0
				c2.39,0,5.25-1.06,6.89-2.86c0.51-0.66,1.02-1.32,1.52-1.97c0.88-1.52,1.33-3.16,1.33-4.92c2.76-23.94-2.08-49.04-13.87-70.1
				c-10.62-18.95-27.21-34.67-46.75-44.17c-5.89-2.86-12.03-5.32-18.32-7.19c-6.66-1.98-13.44-3.19-20.32-4.08
				c-2.29-0.3-5.34,1.3-6.89,2.86c-1.69,1.69-2.96,4.47-2.86,6.89c0.11,2.52,0.94,5.14,2.86,6.89c0.66,0.51,1.32,1.02,1.97,1.52
				C301.45,282.55,303.09,282.99,304.85,283L304.85,283z"/>
		</g>
	</g>
	<g>
		<g>
			<path class="st0" d="M242.09,91.42c3.46,3.19,6.65,6.65,9.55,10.36c-0.51-0.66-1.02-1.32-1.52-1.97
				c4.02,5.22,7.41,10.89,9.98,16.96c-0.33-0.78-0.66-1.55-0.98-2.33c2.25,5.4,3.84,11.04,4.63,16.84
				c-0.12-0.86-0.23-1.73-0.35-2.59c0.68,5.24,0.7,10.52,0,15.76c0.12-0.86,0.23-1.73,0.35-2.59c-0.7,5.04-2.05,9.96-4.02,14.65
				c0.33-0.78,0.66-1.55,0.98-2.33c-1.95,4.56-4.46,8.84-7.49,12.77c0.51-0.66,1.02-1.32,1.52-1.97
				c-3.16,4.06-6.83,7.68-10.88,10.85c0.66-0.51,1.32-1.02,1.97-1.52c-4.78,3.69-10.02,6.69-15.58,9.04
				c0.78-0.33,1.55-0.66,2.33-0.98c-6.45,2.69-13.22,4.47-20.14,5.42c0.86-0.12,1.73-0.23,2.59-0.35
				c-7.79,1.03-15.68,0.98-23.47-0.05c0.86,0.12,1.73,0.23,2.59,0.35c-8.34-1.14-16.48-3.38-24.24-6.63
				c0.78,0.33,1.55,0.66,2.33,0.98c-7.36-3.11-14.31-7.12-20.66-11.99c0.66,0.51,1.32,1.02,1.97,1.52
				c-5.78-4.47-11.01-9.63-15.49-15.41c0.51,0.66,1.02,1.32,1.52,1.97c-3.97-5.17-7.32-10.8-9.86-16.81
				c0.33,0.78,0.66,1.55,0.98,2.33c-2.26-5.41-3.85-11.08-4.64-16.89c0.12,0.86,0.23,1.73,0.35,2.59c-0.68-5.23-0.7-10.51,0-15.73
				c-0.12,0.86-0.23,1.73-0.35,2.59c0.67-4.86,1.94-9.62,3.82-14.14c-0.33,0.78-0.66,1.55-0.98,2.33c1.76-4.15,4.05-8.03,6.8-11.59
				c-0.51,0.66-1.02,1.32-1.52,1.97c2.98-3.81,6.44-7.19,10.26-10.15c-0.66,0.51-1.32,1.02-1.97,1.52
				c4.79-3.67,10.06-6.64,15.61-8.99c-0.78,0.33-1.55,0.66-2.33,0.98c7.18-3,14.75-4.96,22.46-6c-0.86,0.12-1.73,0.23-2.59,0.35
				c4.35-0.57,8.72-0.85,13.11-0.85c5.1,0,9.99-4.49,9.75-9.75c-0.24-5.28-4.28-9.75-9.75-9.75c-15.32,0-30.56,3.2-44.34,9.92
				c-12.65,6.18-24.04,16.19-30.57,28.79c-3.14,6.06-5.41,12.64-6.43,19.4c-0.54,3.63-0.97,7.25-0.98,10.92
				c-0.02,3.72,0.4,7.39,0.91,11.07c1.77,12.57,7.23,24.81,14.84,34.93c8.79,11.69,19.91,21.39,32.88,28.21
				c13.84,7.28,29.17,11.51,44.8,12.17c14.66,0.62,29.25-2.3,42.55-8.43c12.39-5.71,23.14-14.97,30.54-26.43
				c7.98-12.35,11.71-27.78,10.17-42.41c-0.44-4.18-1.09-8.34-2.18-12.39c-1.12-4.15-2.69-8.13-4.42-12.06
				c-3.24-7.37-7.77-14.05-12.92-20.22c-2.38-2.85-4.95-5.52-7.68-8.04c-1.88-1.74-4.29-2.86-6.89-2.86c-2.39,0-5.25,1.06-6.89,2.86
				c-1.71,1.86-2.97,4.3-2.86,6.89C239.35,87.05,240.18,89.65,242.09,91.42L242.09,91.42z"/>
		</g>
	</g>
	<g>
		<g>
			<path class="st0" d="M302.1,139.63c3.43,0.91,6.78,2.05,10.05,3.42c-0.78-0.33-1.55-0.66-2.33-0.98
				c5.79,2.46,11.24,5.61,16.22,9.45c-0.66-0.51-1.32-1.02-1.97-1.52c4.41,3.44,8.39,7.38,11.83,11.79
				c-0.51-0.66-1.02-1.32-1.52-1.97c3.11,4.05,5.73,8.44,7.72,13.14c-0.33-0.78-0.66-1.55-0.98-2.33c1.73,4.15,2.96,8.49,3.58,12.95
				c-0.12-0.86-0.23-1.73-0.35-2.59c0.55,4.09,0.57,8.22,0.04,12.32c0.12-0.86,0.23-1.73,0.35-2.59c-0.54,3.99-1.61,7.87-3.17,11.57
				c0.33-0.78,0.66-1.55,0.98-2.33c-1.53,3.56-3.49,6.89-5.86,9.95c0.51-0.66,1.02-1.32,1.52-1.97c-2.44,3.11-5.25,5.89-8.37,8.33
				c0.66-0.51,1.32-1.02,1.97-1.52c-3.72,2.88-7.81,5.22-12.14,7.06c0.78-0.33,1.55-0.66,2.33-0.98
				c-5.06,2.11-10.37,3.51-15.81,4.24c0.86-0.12,1.73-0.23,2.59-0.35c-5.98,0.78-12.02,0.74-18-0.03c0.86,0.12,1.73,0.23,2.59,0.35
				c-8.45-1.14-16.47-3.91-24.31-7.2c0.78,0.33,1.55,0.66,2.33,0.98c-5.56-2.36-10.97-5.1-15.79-8.77c0.66,0.51,1.32,1.02,1.97,1.52
				c-2.23-1.72-4.29-3.62-6.14-5.74c-1.57-1.81-4.57-2.86-6.89-2.86c-2.39,0-5.25,1.06-6.89,2.86c-1.71,1.86-2.97,4.3-2.86,6.89
				c0.12,2.69,1.08,4.86,2.86,6.89c5.98,6.87,14.1,11.75,22.37,15.38c8.4,3.69,17.05,7.08,26.14,8.55
				c4.61,0.74,9.26,1.26,13.93,1.25c4.48-0.01,8.94-0.5,13.36-1.23c7.77-1.29,15.45-4.06,22.27-7.99
				c13.68-7.89,24.34-21.4,27.38-37.06c3.01-15.52-0.52-31.6-9.21-44.77c-9.51-14.41-23.6-24.79-39.72-30.73
				c-2.27-0.84-4.57-1.56-6.9-2.18c-2.46-0.65-5.31-0.31-7.51,0.98c-2.02,1.18-3.95,3.5-4.48,5.83
				C294.12,132.75,296.83,138.22,302.1,139.63L302.1,139.63z"/>
		</g>
	</g>
</g>
</svg>
