<svg id="Layer_1" data-name="Layer 1" xmlns="http://www.w3.org/2000/svg" viewBox="0 0 347.4 338.1"><path d="M187.28,81,179,89l-21.23,20.6L128.3,138.27,95.92,169.7,65.2,199.51l-23.67,23L29.59,234.08a14.32,14.32,0,0,0-3.52,6.4l-3.53,11.7L10.22,293.1l-9.33,31-.5,1.67c-2.14,7.1,5,14,12,12l17.43-5,35.6-10.29,29.31-8.47c3.17-.92,6.24-1.54,8.81-3.81.38-.34.74-.71,1.1-1.06l8.3-8,15.12-14.49,20.61-19.75,24.46-23.45,27.07-25.95,28-26.84,27.7-26.55,25.72-24.65,22.49-21.56L321.73,101l11.45-11a66,66,0,0,0,6.2-6.32c3.64-4.59,6.52-9.85,7.44-15.71a35.53,35.53,0,0,0-1.08-17.37A36.08,36.08,0,0,0,337,36.54c-.8-.79-1.61-1.56-2.41-2.34L310.91,11.32C305.59,6.18,299.42,1.92,292,.6a35.67,35.67,0,0,0-31.37,9.24c-7.21,6.86-14.36,13.79-21.53,20.68l-6.83,6.55c-3.68,3.54-3.82,10.28,0,13.79a10,10,0,0,0,13.79,0l26.88-25.81,1.49-1.43.73-.69c.23-.21.48-.4.71-.61,1.32-1.18-1.86,1.3-.5.38A30.19,30.19,0,0,1,280.13,20l-2.33,1a26.26,26.26,0,0,1,6.45-1.77l-2.59.35a26.82,26.82,0,0,1,6.64,0l-2.6-.34A26.42,26.42,0,0,1,292.16,21l-2.33-1a25.62,25.62,0,0,1,4.39,2.4c.25.17.5.37.75.54-2.47-1.66-1.1-.87-.51-.36.37.32.72.65,1.07,1l1.31,1.27,7.25,7,17.33,16.76,1.75,1.69c.29.29.58.57.85.87s.53.56.78.85.39.47.58.71c-1-1.33-1.28-1.68-.84-1.07a29.41,29.41,0,0,1,2.75,4.82l-1-2.33a26.89,26.89,0,0,1,1.82,6.71l-.35-2.6a26.93,26.93,0,0,1,0,6.47l.35-2.59a26.84,26.84,0,0,1-1.69,6.29l1-2.33a26.34,26.34,0,0,1-1.81,3.55,7.32,7.32,0,0,1-1.27,1.85s1.67-2,.68-.9c-.3.35-.6.7-.91,1s-.7.72-1.06,1.07l-.76.73-3.89,3.72-16,15.33-24.69,23.67-30.67,29.39-33.92,32.51-34.44,33L146.45,242l-27.33,26.19L99.49,287c-3.12,3-6.27,5.94-9.35,9l-.4.39,4.3-2.51-29.51,8.53L17.9,315.84,7.2,318.93l12,12,8.86-29.4,14.09-46.79,3.21-10.66-2.51,4.3,4.24-4.11,11.47-11.14,17-16.54L96.41,196.4l22.67-22,23-22.33,21.45-20.82,18-17.51,13-12.67c2.05-2,4.15-4,6.17-6l.26-.26c3.67-3.55,3.85-10.26,0-13.78a9.92,9.92,0,0,0-13.78,0Z"/><path d="M253.56,72.16,267.51,85.4l22.22,21.09,5.09,4.83a10.13,10.13,0,0,0,6.89,2.85,9.91,9.91,0,0,0,6.89-2.85c3.5-3.81,4-10,0-13.79l-14-13.24-22.22-21.1-5.08-4.82a10.13,10.13,0,0,0-6.89-2.85,10,10,0,0,0-6.9,2.85c-3.49,3.81-3.95,10,0,13.79Z"/><path d="M232,97.53l-4.35,4.21-11.84,11.45-17.42,16.86-21.25,20.56-23.36,22.61L130.24,196l-21.91,21.2L89.82,235.16,76.45,248.1c-2.11,2-4.24,4.05-6.32,6.12l-.27.26c-3.67,3.55-3.84,10.26,0,13.78a9.94,9.94,0,0,0,13.79,0L88,264.05,99.83,252.6l17.42-16.86,21.25-20.56,23.36-22.61,23.59-22.82,21.9-21.2,18.52-17.92,13.36-12.93c2.11-2,4.24-4.06,6.33-6.12l.27-.26c3.67-3.56,3.83-10.27,0-13.79a9.94,9.94,0,0,0-13.79,0Z"/><path d="M16.68,335.23l23.83-21.08,3.38-3a9.77,9.77,0,0,0,0-13.79,10,10,0,0,0-13.79,0L6.27,318.45l-3.37,3a9.74,9.74,0,0,0,0,13.79,10,10,0,0,0,13.78,0Z"/></svg>