<!--?xml version="1.0" standalone="no"?-->
<svg version="1.0" xmlns="http://www.w3.org/2000/svg" width="300.000000pt" height="300.000000pt" viewBox="0 0 300.000000 300.000000" preserveAspectRatio="xMidYMid meet">
    <metadata>
        <rdf:rdf xmlns:rdf="http://www.w3.org/1999/02/22-rdf-syntax-ns#" xmlns:rdfs="http://www.w3.org/2000/01/rdf-schema#" xmlns:dc="http://purl.org/dc/elements/1.1/">
            <rdf:description dc:title="notice board stick pin" dc:publisher="Hiox" dc:date="2015-03-14" dc:format="image/svg+xml" dc:language="en">
                <dc:creator>
                    <rdf:bag>
                        <rdf:li>svgimages.com</rdf:li>
                    </rdf:bag>
                </dc:creator>
            </rdf:description>
        </rdf:rdf>
    </metadata>
    <g transform="translate(0.000000,300.000000) scale(0.100000,-0.100000)" fill="white" stroke="none">
        <path
            d="M1835 2756 c-6 -7 -23 -31 -40 -51 l-29 -37 41 -37 c22 -20 57 -49
78 -66 38 -29 135 -109 225 -185 25 -21 88 -73 140 -116 52 -43 134 -111 182
-151 48 -40 91 -73 96 -73 5 0 27 23 50 51 l42 51 -21 29 c-58 82 -227 254
-343 348 -131 107 -360 251 -398 251 -7 0 -18 -6 -23 -14z"
            id="node1"
            class="node"></path>
        <path
            d="M1729 2313 c-95 -114 -190 -230 -213 -257 l-40 -49 25 -21 c14 -11
86 -70 160 -131 73 -60 165 -136 203 -167 37 -32 74 -58 81 -58 12 0 31 20 78
80 7 8 87 106 179 217 l168 202 -68 58 c-37 32 -103 87 -147 122 -44 36 -96
79 -116 95 -19 17 -49 42 -65 55 -16 13 -39 33 -51 43 l-21 20 -173 -209z"
            id="node2"
            class="node"></path>
        <path
            d="M1113 2040 c-65 -14 -138 -49 -169 -81 -15 -16 -26 -30 -23 -32 24
-18 275 -223 279 -227 3 -3 43 -36 90 -74 47 -38 91 -75 99 -82 12 -10 7 -21
-31 -66 -24 -29 -129 -156 -233 -283 -104 -126 -192 -232 -195 -235 -3 -3 -60
-72 -126 -155 -113 -140 -160 -219 -179 -298 -4 -15 -11 -30 -16 -33 -5 -3 -9
-12 -9 -20 0 -7 41 21 91 64 96 82 137 130 644 752 124 152 148 180 157 180 5
0 106 -80 225 -177 118 -98 220 -179 227 -181 7 -1 23 19 37 45 22 43 24 60
23 168 0 116 -1 123 -37 205 -20 47 -45 91 -55 98 -21 16 -297 243 -404 333
-61 52 -92 70 -140 83 -73 20 -198 28 -255 16z"
            id="node3"
            class="node"></path>
    </g>
    <g transform="translate(0.000000,300.000000) scale(0.100000,-0.100000)" fill="#A0A0A0" stroke="none"></g>
</svg>
