<?xml version="1.0" encoding="utf-8"?>
<!-- Generator: Adobe Illustrator 26.2.1, SVG Export Plug-In . SVG Version: 6.00 Build 0)  -->
<svg version="1.1" id="Layer_1" xmlns="http://www.w3.org/2000/svg" xmlns:xlink="http://www.w3.org/1999/xlink" x="0px" y="0px"
	 viewBox="0 0 450 450" style="enable-background:new 0 0 450 450;" xml:space="preserve">
<g>
	<g>
		<g>
			<path d="M166.73,98.99c5.16-1.76,10.32-3.52,15.48-5.29c2.26-0.77,4.53-1.52,6.78-2.31c6.61-2.33,12.26-7.5,13.64-14.63
				c0.53-2.75,0.61-5.61,0.8-8.39c0.24-3.55,0.49-7.11,0.73-10.66c0.15-2.26,0.67-4.79,0.48-7.05c0-0.01,0.02-0.14,0.01-0.15
				c0.26,0.12-0.58,2.68-0.01,0.59c0.04-0.13,0.33-0.92,0.31-0.94c0.12,0.15-1.03,1.84-0.47,1.22c0.19-0.21,0.39-0.57,0.5-0.83
				c0.31-0.73-1.64,1.66-0.48,0.66c0.15-0.13,0.4-0.34,0.52-0.5c0.62-0.91-1.84,1.15-0.85,0.63c0.45-0.23,1.06-0.53,1.47-0.83
				c-1.79,1.32-1.8,0.63-0.96,0.47c0.13-0.02,0.95-0.21,0.96-0.23c-0.04,0.07-2.25,0.15-1.35,0.2c0.42,0.02,0.85-0.02,1.28,0
				c10.11,0.47,20.22,1.38,30.32,2.07c6.69,0.46,13.38,0.91,20.08,1.37c2.02,0.14,4.05,0.28,6.07,0.41c0.46,0.03,0.94,0.1,1.41,0.1
				c0.02,0,0.18,0.03,0.19,0.01c-0.24,0.31-2.63-0.57-0.59-0.01c0.24,0.07,0.47,0.16,0.71,0.23c1.06,0.3-2.05-1.17-0.77-0.27
				c0.18,0.13,0.74,0.35,0.82,0.52c0.04,0.09-1.89-1.81-0.86-0.61c0.13,0.15,0.34,0.4,0.5,0.52c0.9,0.61-1.07-1.85-0.63-0.85
				c0.19,0.44,0.83,0.97,0.83,1.47c0,0.06-0.8-2.51-0.47-0.96c0.06,0.31,0.13,0.66,0.23,0.96c-0.72-2.12-0.17-1.99-0.19-1.1
				c-0.01,0.34,0,0.68-0.02,1.02c0,0.02,0,0.05-0.01,0.07c-0.01,0.23-0.03,0.45-0.05,0.68c-0.17,2.49-0.34,4.98-0.51,7.47
				c-0.45,6.53-0.89,13.06-1.34,19.6c-0.28,4.17,0.35,8.12,2.28,11.9c3.58,7.01,11.13,9.13,17.59,12.54
				c2.87,1.51,5.6,3.41,8.55,4.73c4.46,2,9.42,2.72,14.19,1.25c3.84-1.19,6.78-3.53,9.73-6.11c5.05-4.4,10.09-8.8,15.14-13.2
				c1.55-1.35,3.3-2.62,4.71-4.11c0.61-0.64-2.18,1.34-0.57,0.46c0.22-0.12,0.46-0.25,0.67-0.38c0.99-0.64-2.07,0.68-0.93,0.38
				c0.24-0.06,0.49-0.14,0.72-0.22c1.65-0.57-2.36,0.04-0.63,0.04c0.46,0,2.55,0.17,0.68-0.08c-2.03-0.26,0.43,0.01,0.63,0.29
				c0.06,0.08-2.32-1.29-0.95-0.38c0.2,0.13,0.68,0.47,0.87,0.52c-0.01,0-1.59-1.42-0.96-0.73c0.3,0.32,0.63,0.61,0.93,0.93
				c6.82,7.48,13.32,15.27,19.97,22.9c4.41,5.05,8.82,10.11,13.22,15.16c1.33,1.53,2.67,3.06,4,4.58c0.31,0.35,0.61,0.72,0.93,1.06
				c0.04,0.05,0.08,0.1,0.13,0.14c-1.62-1.56-0.9-1.24-0.45-0.48c0.21,0.36,0.69,1.45,0.08-0.02c-0.66-1.59-0.13-0.11,0.01,0.26
				c0.56,1.51-0.1-2.41-0.04-0.38c0.01,0.33-0.03,0.66-0.02,0.99c0.03,0.9,0.13-1.34,0.19-1.36c-0.01,0-0.21,0.84-0.24,0.96
				c-0.29,1.57,0.45-0.98,0.45-0.93c0,0.19-0.42,0.77-0.48,0.89c-0.58,1.12,0.36-0.53,0.63-0.72c-0.6,0.44-1.14,1.15-1.72,1.66
				c-1.82,1.59-3.64,3.18-5.47,4.77c-5.12,4.47-10.24,8.93-15.36,13.4c-1.36,1.18-2.83,2.31-3.97,3.71
				c-3.05,3.73-4.89,7.99-4.97,12.87c-0.06,4.02,1.51,7.55,2.7,11.29c1.12,3.55,1.82,7.35,3.67,10.62c2.08,3.68,5.43,6.55,9.3,8.18
				c3,1.27,6.1,1.6,9.3,1.82c6.42,0.44,12.83,0.88,19.25,1.32c3.25,0.22,6.5,0.44,9.75,0.67c1.06,0.07,2.12,0.14,3.18,0.22
				c0.41,0.03,1.11,0.22,1.52,0.1c0.09-0.03,4.28,0.61-0.74-0.11c-1.84-0.27,0.23,0.13,0.67,0.25c1.57,0.42-1.06-0.39-0.97-0.42
				c0.1-0.03,0.83,0.47,0.84,0.48c0.85,0.45,0.12,0.79-0.81-0.66c0.14,0.22,0.49,0.49,0.7,0.66c1.2,1.01-0.67-0.9-0.61-0.87
				c0.15,0.08,0.47,0.72,0.52,0.81c0.12,0.2,0.2,0.45,0.34,0.64c0.65,0.9-0.51-2.07-0.44-0.98c0.01,0.2,0.13,0.52,0.2,0.71
				c0.5,1.44-0.3-0.99-0.11-1.12c-0.05,0.03,0.02,1.36,0.01,1.53c-0.05,0.96-0.13,1.92-0.2,2.88c-0.39,5.64-0.77,11.28-1.16,16.91
				c-0.84,12.28-1.68,24.56-2.52,36.84c-0.03,0.41-0.11,0.85-0.09,1.26c0.01,0.24-0.16,1.2,0.1-0.64c0.26-1.77-0.14,0.2-0.25,0.67
				c-0.38,1.59,0.38-1.09,0.42-0.97c0.07,0.23-0.53,0.84-0.61,1.04c-0.41,0.98,0.82-1.27,0.8-1.01c-0.01,0.16-0.53,0.55-0.66,0.7
				c-0.58,0.67-1.02,0.17,0.87-0.61c-0.21,0.09-0.4,0.29-0.6,0.4c-0.28,0.15-0.58,0.29-0.84,0.46c-0.95,0.6,2.09-0.51,0.98-0.44
				c-0.2,0.01-0.52,0.13-0.71,0.2c-1.56,0.54,1.78-0.05,0.87-0.1c-0.68-0.04-1.37-0.01-2.05-0.06c-5.72-0.39-11.45-0.78-17.17-1.17
				c-5.96-0.41-11.92-0.81-17.89-1.22c-4.19-0.29-8.52,0.51-12.12,2.79c-3.4,2.16-6.02,5.12-7.68,8.78
				c-1.46,3.21-3.04,6.35-4.74,9.44c-2.15,3.9-4.02,7.44-4.33,11.99c-0.27,3.98,0.91,8.49,3.23,11.76c1.28,1.8,2.74,3.43,4.19,5.09
				c4.36,5,8.72,10,13.08,15c3.2,3.67,6.26,7.55,9.64,11.05c0.55,0.57-1.28-1.99-0.51-0.62c0.04,0.07,0.52,0.74,0.5,0.9
				c-0.01,0.06-0.81-2.49-0.42-0.92c0.06,0.24,0.12,0.49,0.19,0.73c0.36,1.08-0.07-2.49-0.1-0.87c-0.01,0.33,0.01,0.66,0.01,0.99
				c0,0.92-0.55,0.88,0.17-1.12c-0.14,0.39-0.8,2.39-0.09,0.74c0.77-1.79-0.42,0.38-0.45,0.62c0.02-0.2,1.65-1.8,0.56-0.76
				c-0.26,0.24-0.5,0.5-0.76,0.73c-0.67,0.61-1.37,1.2-2.05,1.79c-9.73,8.48-19.45,16.96-29.18,25.45c-3.82,3.33-7.64,6.66-11.46,10
				c-0.33,0.29-0.7,0.57-1.01,0.88c-0.04,0.05-0.1,0.08-0.15,0.13c0,0,1.14-0.87,1.14-0.87c-0.21,0.08-0.66,0.4-0.88,0.55
				c-0.66,0.46-1.31,0.12,0.94-0.34c-0.31,0.06-0.66,0.2-0.96,0.3c-1.41,0.48,0.94-0.21,1.12-0.08c-0.07-0.05-0.82,0.05-0.99,0.05
				c-0.15,0-0.94-0.08-0.99-0.04c0.06-0.05,2.2,0.45,1.37,0.15c-0.3-0.1-0.65-0.2-0.96-0.26c-0.9-0.17,1.21,0.4,1.17,0.52
				c-0.01,0.03-0.78-0.42-0.89-0.48c-1.42-0.67,1.29,1.24,0.53,0.46c-0.48-0.49-0.96-0.96-1.41-1.48
				c-7.9-9.01-15.76-18.07-23.63-27.1c-1.08-1.24-2.1-2.49-3.38-3.53c-3.72-3.01-8.14-4.9-13-4.82c-4.06,0.06-7.54,1.64-11.31,2.89
				c-3.59,1.19-7.54,1.93-10.82,3.87c-3.26,1.93-6.15,4.93-7.69,8.4c-1.47,3.3-1.92,6.61-2.17,10.15
				c-0.81,11.87-1.62,23.74-2.43,35.61c-0.01,0.19-0.03,0.39-0.04,0.58c-0.02,0.98,0.59-2.46,0.12-0.92
				c-0.14,0.45-0.8,2.33-0.14,0.71c0.7-1.73-0.33,0.17-0.46,0.53c0.64-1.74,1.3-1.48,0.61-0.86c-0.03,0.02-0.57,0.66-0.69,0.66
				c-0.12,0,2.24-1.4,0.82-0.66c-0.28,0.15-0.57,0.32-0.83,0.48c-1.37,0.86,1.05-0.52,0.99-0.41c-0.05,0.1-0.92,0.27-0.94,0.27
				c-0.32,0.11-1.34,0.22,0.32-0.01c1.67-0.23,0.48-0.08,0.04-0.08c-0.3,0-0.6-0.01-0.9-0.03c-0.41-0.02-0.81-0.06-1.22-0.08
				c-4.95-0.34-9.91-0.68-14.86-1.02c-12.96-0.89-25.92-1.77-38.88-2.66c-0.51-0.03-2.52-0.5-2.96-0.2
				c0.12-0.08,2.53,0.54,1.07,0.13c-0.42-0.12-2.39-0.83-0.71-0.14c1.73,0.7-0.17-0.33-0.53-0.46c1.76,0.64,1.47,1.3,0.86,0.61
				c-0.27-0.31-1.23-1.44-0.2-0.08c1.05,1.37-0.04-0.22-0.29-0.62c-0.54-0.88,0.41-0.56,0.41,0.99c0-0.21-0.22-0.79-0.27-0.94
				c-0.11-0.32-0.22-1.35,0.01,0.32c0.22,1.67,0.08,0.48,0.08,0.04c0-0.27,0.01-0.53,0.02-0.8c0.22-4.58,0.63-9.16,0.94-13.73
				c0.46-6.79,0.93-13.58,1.39-20.37c0.1-1.41,0.22-2.82,0.29-4.24c0.35-7.54-4.16-15.32-11.12-18.41
				c-3.28-1.46-6.45-3.06-9.67-4.65c-4.47-2.21-8.94-2.93-13.84-1.98c-4.07,0.79-7.3,3.2-10.34,5.85
				c-4.66,4.07-9.33,8.13-13.99,12.2c-4.04,3.52-8.19,6.95-12.13,10.58c-0.08,0.08-0.18,0.14-0.26,0.22
				c1.53-1.61,1.25-0.91,0.48-0.45c-0.36,0.21-1.45,0.69,0.02,0.08c1.62-0.68,0.04-0.09-0.26,0.01c-1.47,0.49,2.54-0.1,0.38-0.04
				c-0.33,0.01-0.66-0.03-0.99-0.02c-0.9,0.03,1.34,0.13,1.36,0.19c-0.01-0.01-0.84-0.21-0.96-0.24c-0.78-0.15-1.01-0.85,0.93,0.45
				c-0.2-0.14-0.45-0.23-0.67-0.35c-1.39-0.79,0.16,0.04,0.5,0.51c-0.68-0.93-1.78-1.85-2.55-2.74
				c-8.35-9.57-16.69-19.14-25.04-28.7c-3.49-4-6.98-8-10.46-12c-0.36-0.42-0.71-0.85-1.09-1.25c-0.06-0.06-0.13-0.2-0.21-0.24
				c-0.01-0.01-0.02-0.03-0.03-0.04c-0.03-0.02,1.17,1.77,0.73,0.93c-0.13-0.26-0.67-0.8-0.65-1.11c0.01-0.08,0.76,2.51,0.42,0.92
				c-0.03-0.12-0.25-0.97-0.25-0.97c0.05,0.01,0.17,2.27,0.18,1.36c0-0.33-0.04-0.66-0.03-0.99c0.04-2.04-0.59,1.91-0.06,0.38
				c0.04-0.11,0.26-0.97,0.29-0.95c0.12,0.07-1.22,2.44-0.25,0.73c0.98-1.73-1.34,1.17-0.16,0.11c0.26-0.24,0.51-0.5,0.77-0.74
				c0.11-0.1,0.22-0.19,0.33-0.29c8.3-7.32,16.75-14.48,25.04-21.83c5.31-4.71,7.2-11.73,6.06-18.57c-0.1-0.61-0.23-1.21-0.43-1.79
				c-0.22-0.65-0.51-1.28-0.77-1.92c-0.16-0.39-0.33-0.78-0.49-1.16c0.49,1.17,0.6,1.42,0.32,0.74c-0.64-1.6-1.29-3.2-1.88-4.81
				c-1.21-3.28-2.11-6.65-3.28-9.93c-2.86-8.05-9.7-12.87-18.1-13.55c-1.76-0.14-3.53-0.24-5.3-0.36
				c-6.9-0.47-13.79-0.94-20.69-1.41c-1.18-0.08-2.36-0.16-3.55-0.24c-0.31-0.02-1.22-0.25-1.5-0.1c-0.04,0.02,2.16,0.43,1.31,0.18
				c-0.38-0.11-2.69-0.89-0.95-0.19c1.77,0.72-0.37-0.12-0.53-0.46c-0.04-0.09,1.89,1.81,0.86,0.61c-0.17-0.2-0.45-0.56-0.66-0.69
				c1.38,0.84,1.14,1.7,0.66,0.82c-0.15-0.27-0.32-0.57-0.48-0.83c-0.81-1.32,0.64,2.22,0.2,0.29c-0.49-2.13-0.02,1.98,0.02,0.38
				c0.01-0.35,0-0.69,0.02-1.04c0.49-10.41,1.42-20.81,2.13-31.21c0.45-6.6,0.9-13.19,1.35-19.79c0.13-1.92,0.26-3.83,0.39-5.75
				c0.03-0.38,0.11-0.8,0.08-1.18c-0.05-0.68-0.49,2.31-0.17,1.22c0.16-0.55,0.34-1.12,0.48-1.67c-0.64,2.48-0.78,1.61-0.35,1.01
				c0.23-0.33,1.1-1.57,0.05-0.21c-1.1,1.43,0.35-0.1,0.55-0.41c-0.88,1.42-1.69,1.13-0.82,0.66c0.27-0.15,0.57-0.32,0.83-0.48
				c0.28-0.17,1.2-0.55-0.28,0.1c-1.49,0.65-0.43,0.19-0.01,0.1c0.23-0.05,0.5-0.09,0.72-0.16c-2.12,0.72-1.81,0.17-0.59,0.18
				c0.53,0.01,1.06,0.06,1.59,0.1c2.63,0.18,5.25,0.36,7.88,0.54c6.48,0.44,12.96,0.89,19.44,1.33c4.21,0.29,8.29-0.36,12.05-2.42
				c3.31-1.81,6.34-4.93,7.9-8.37c1.49-3.29,2.92-6.58,4.57-9.79c1.99-3.85,3.79-7.64,3.64-12.1c-0.16-5.04-2.08-9.35-5.32-13.15
				c-0.95-1.12-1.94-2.22-2.9-3.33c-4.51-5.17-9.03-10.35-13.54-15.52c-1.39-1.59-2.72-3.26-4.18-4.79
				c-0.08-0.08-0.14-0.18-0.22-0.26c-0.01-0.01,0.87,1.13,0.87,1.14c-0.03-0.18-0.48-0.77-0.55-0.88c-0.46-0.72-0.08-1.14,0.34,0.94
				c-0.06-0.31-0.2-0.66-0.3-0.96c-0.53-1.55,0.12,1.18,0.08,1.12c-0.09-0.15-0.05-0.88-0.05-0.99c0-0.25,0.03-0.5,0.03-0.74
				c0-1.2-0.49,2.27-0.14,1.12c0.09-0.31,0.2-0.64,0.26-0.96c0.17-0.9-0.4,1.21-0.52,1.17c-0.03-0.01,0.42-0.78,0.48-0.89
				c0.67-1.42-1.24,1.28-0.46,0.53c7.35-7.11,15.43-13.57,23.14-20.3c7.22-6.29,14.44-12.59,21.65-18.88
				c3.86-3.36,3.7-10.39,0-13.79c-4.11-3.77-9.67-3.59-13.79,0c-7.73,6.74-15.45,13.47-23.18,20.21
				c-5.09,4.44-10.18,8.88-15.28,13.32c-3.39,2.95-7.38,5.83-9.4,9.95c-3.82,7.79-2.47,16.15,3.07,22.7
				c1.14,1.35,2.33,2.67,3.5,4.01c4.53,5.19,9.06,10.39,13.6,15.58c0.82,0.94,1.64,1.87,2.45,2.81c0.35,0.41,0.76,1.09,1.21,1.39
				c0.02,0.02,0.04,0.05,0.06,0.07c-0.01-0.01-1.1-1.71-0.68-0.86c0.15,0.32,0.36,0.66,0.55,0.96c0.52,0.79-0.45-1.03-0.45-1.07
				c-0.01,0.18,0.22,0.81,0.3,1.04c0.53,1.64-0.17-1.05-0.12-0.99c0.19,0.24-0.02,1.08-0.02,1.35c0.01,1.03,0.05-1.32,0.15-1.24
				c0.17,0.12-0.35,0.87-0.29,1.06c-0.24-0.74,0.97-1.9,0.31-0.79c-0.23,0.4-0.44,0.82-0.65,1.22c-0.86,1.64-1.69,3.3-2.49,4.97
				c-0.7,1.47-1.37,2.95-2.02,4.45c-0.32,0.75-0.61,1.52-1.01,2.24c-0.15,0.27-0.46,0.62-0.55,0.88c0.1-0.31,1.49-1.65,0.55-0.78
				c-0.1,0.09-0.55,0.64-0.74,0.7c-0.02,0.01,2.17-1.31,0.74-0.63c-0.12,0.05-0.87,0.53-0.89,0.49c-0.07-0.12,2.09-0.7,1.15-0.51
				c-0.32,0.07-0.68,0.16-0.99,0.27c-0.9,0.32,1.3-0.29,1.31-0.15c0.01,0.06-1.54,0.02-1.59,0.02c-1.72-0.08-3.45-0.24-5.17-0.35
				c-6.88-0.47-13.76-0.94-20.64-1.41c-1.65-0.11-3.33-0.32-4.99-0.31c-8.71,0.07-16.36,5.95-18.88,14.24
				c-1.21,3.98-1.04,8.89-1.32,13.02c-0.47,6.82-0.93,13.65-1.4,20.47c-0.47,6.89-0.94,13.78-1.41,20.67
				c-0.23,3.42-0.86,7.07-0.56,10.5c0.73,8.39,6.38,16.16,14.9,18.07c2.51,0.56,5.16,0.64,7.72,0.81
				c6.88,0.47,13.76,0.94,20.65,1.41c2.17,0.15,4.36,0.39,6.53,0.45c0.02,0,0.31,0.03,0.31,0.02c-0.02,0.1-2.22-0.45-1.31-0.17
				c0.31,0.09,0.67,0.2,0.99,0.25c0.91,0.14-1.19-0.39-1.15-0.54c0.01-0.04,1.27,0.69,1.32,0.72c1.31,0.76-1.72-1.62-0.24-0.1
				c1.39,1.43-0.89-1.59-0.15-0.19c0.07,0.13,0.47,0.69,0.48,0.89c0,0.01-0.81-2.46-0.44-0.88c0.21,0.9,0.53,1.78,0.8,2.66
				c1.07,3.41,2.27,6.77,3.6,10.08c0.3,0.75,0.61,1.49,0.92,2.23c0.33,0.78,0.66,1.55,0.98,2.33c-0.17-0.4-0.34-0.8-0.52-1.2
				c-0.03,0.08,0.31,1.02,0.31,1.02c0.49,1.59-0.07-2.35-0.06-0.27c0,0.44-0.14,1.63,0.09-0.01c0.26-1.82-0.05-0.1-0.12,0.22
				c-0.35,1.56,1.09-1.97,0.09-0.19c-1.05,1.87,1.25-1.14,0.14-0.07c-0.3,0.29-0.6,0.59-0.91,0.87c-0.5,0.45-1.01,0.88-1.51,1.32
				c-4.94,4.31-9.89,8.62-14.83,12.93c-4.17,3.63-9.03,7.08-12.21,11.66c-5.17,7.44-3.62,17.35,1.96,23.98
				c0.61,0.72,1.23,1.42,1.85,2.14c3.71,4.26,7.42,8.51,11.13,12.77c8.17,9.37,16.34,18.73,24.51,28.1c1.7,1.95,3.59,3.76,5.94,4.95
				c7.82,3.93,16.29,2.65,22.91-2.94c3.66-3.1,7.24-6.31,10.86-9.47c4.94-4.31,9.88-8.62,14.82-12.93c0.53-0.47,1.1-0.91,1.61-1.4
				c0.07-0.07,0.16-0.12,0.23-0.2c0.01-0.01-1.09,0.84-1.09,0.84c0.12,0,0.91-0.56,0.94-0.58c0.26-0.16,1.23-0.6-0.18,0.04
				c-1.51,0.69-0.01,0.12,0.37-0.01c1.63-0.54-1.06,0.16-1,0.11c0.12-0.1,1.01-0.01,1.07-0.01c0.34,0,1.37,0.14-0.22-0.05
				c-1.63-0.2-0.39,0.04,0.03,0.11c1.18,0.21-1.85-0.98-0.79-0.38c0.28,0.16,0.58,0.3,0.86,0.45c0.92,0.48,1.84,0.95,2.77,1.41
				c1.55,0.77,3.12,1.51,4.7,2.22c0.71,0.32,1.44,0.61,2.15,0.95c0.31,0.15,0.62,0.31,0.92,0.49c1.15,0.69,0.01,0.62-0.52-0.47
				c0.13,0.27,1.73,1.94,0.6,0.5c-1.09-1.38,0.06,0.39,0.29,0.73c-1.92-2.82,0.18-0.75-0.19,0.07c-0.04,0.08-0.12-2.75-0.17-1.06
				c-0.01,0.35,0,0.7-0.02,1.05c-0.02,0.35-0.05,0.7-0.07,1.05c-0.16,2.35-0.32,4.71-0.48,7.06c-0.49,7.13-0.97,14.26-1.46,21.39
				c-0.45,6.54-1.42,12.69,1.71,18.86c3.26,6.44,9.85,9.85,16.81,10.44c1.18,0.1,2.36,0.16,3.54,0.24
				c13.24,0.9,26.48,1.81,39.72,2.71c4.64,0.32,9.28,0.63,13.92,0.95c4.01,0.27,8.17-0.61,11.63-2.72c5.97-3.65,9.05-9.66,9.6-16.49
				c0.94-11.7,1.6-23.43,2.4-35.14c0.06-0.84,0.12-1.68,0.17-2.52c0.01-0.18,0.05-0.39,0.04-0.57c0-0.01,0.02-0.1,0.01-0.1
				c-0.02-0.01,2.72-18.96-0.11,0.77c-0.25,1.76,0.05,0.18,0.12-0.23c0.26-1.56-1.08,1.97-0.11,0.22c0.16-0.3,0.36-0.57,0.53-0.86
				c0.61-1-1.46,1.56-0.57,0.8c0.19-0.16,0.37-0.36,0.54-0.53c1.14-1.15-0.79,0.64-0.78,0.59c0.05-0.13,0.84-0.5,0.88-0.52
				c1.39-0.81-1.76,0.51-0.65,0.29c3.5-0.67,7.04-2.13,10.37-3.36c0.7-0.26,1.38-0.54,2.1-0.75c0.24-0.07,0.55-0.09,0.78-0.2
				c-1.64,0.73-2.01,0.15-1.02,0.16c0.04,0,0.95-0.08,1.05,0.01c0.06,0.05-2.67-0.59-1.05-0.13c0.24,0.07,0.51,0.16,0.75,0.2
				c1.1,0.21-2.05-1.11-0.64-0.29c0.04,0.02,0.78,0.54,0.9,0.53c-0.2,0-1.79-1.65-0.72-0.54c0.25,0.26,0.51,0.51,0.76,0.78
				c0.09,0.09,0.17,0.19,0.25,0.29c1.26,1.42,2.5,2.86,3.74,4.29c4.68,5.36,9.35,10.72,14.03,16.08c2.82,3.23,5.48,6.88,8.63,9.81
				c6.39,5.94,16.38,7.41,23.93,2.67c1.74-1.09,3.27-2.5,4.82-3.84c4.07-3.55,8.13-7.09,12.2-10.64c9.55-8.33,19.11-16.66,28.66-25
				c1.66-1.45,3.04-2.89,4.36-4.74c5.29-7.37,3.83-17.27-1.65-23.99c-2.81-3.45-5.85-6.73-8.77-10.08
				c-4.53-5.2-9.07-10.4-13.6-15.59c-0.96-1.1-1.86-2.31-2.9-3.32c-0.17-0.17,1.18,1.8,0.68,0.86c-0.12-0.23-0.28-0.48-0.42-0.7
				c-0.81-1.29,0.33,0.62,0.33,0.85c0-0.19-0.22-0.79-0.3-1.03c-0.29-0.9,0.4-0.96,0.11,1.01c0.04-0.25-0.02-0.55-0.02-0.8
				c0.03-2.05-0.15,0.73-0.15,0.73c-0.06-0.03,0.24-0.9,0.27-1.05c0.22-1,0.73-0.28-0.36,0.81c0.46-0.46,0.8-1.4,1.11-1.96
				c0.9-1.58,1.76-3.17,2.59-4.78c0.78-1.51,1.54-3.04,2.26-4.59c0.17-0.36,1.71-4.35,2.17-4.27c0.19,0.03-1.79,1.9-0.54,0.82
				c0.19-0.16,0.38-0.34,0.55-0.51c0.83-0.82-1.81,1.15-0.77,0.63c0.22-0.11,0.44-0.25,0.65-0.38c1.35-0.83-0.89,0.52-0.96,0.38
				c-0.01-0.03,0.85-0.25,0.96-0.29c0.8-0.28,1.28,0.26-1.09,0.1c0.34,0.02,0.69-0.04,1.03-0.04c1.44,0.02,2.89,0.18,4.32,0.28
				c6.83,0.47,13.66,0.93,20.48,1.4c4.51,0.31,9.2,1.05,13.73,0.89c8.65-0.3,16.35-6.05,18.7-14.47c0.58-2.08,0.67-4.3,0.82-6.46
				c0.86-12.65,1.73-25.29,2.59-37.94c0.37-5.38,0.74-10.77,1.1-16.15c0.09-1.38,0.22-2.73,0.08-4.11
				c-0.88-8.42-6.66-16.29-15.37-17.91c-5.21-0.97-10.71-0.95-15.97-1.31c-6.79-0.46-13.58-0.93-20.37-1.39
				c-0.84-0.06-1.67-0.13-2.51-0.17c-0.19-0.01-0.39-0.06-0.58-0.04c-0.01,0-0.09-0.01-0.1-0.01c-0.01,0.02,1.57,0.21,1.58,0.23
				c-0.04-0.07-1.05-0.24-1.21-0.29c-0.4-0.12-1.49-0.56,0.01,0.06c1.49,0.61,0.55,0.26,0.28,0.06c-0.16-0.11-0.61-0.44-0.83-0.52
				c1.73,0.61,1.46,1.3,0.84,0.6c-0.13-0.15-0.66-0.54-0.67-0.7c-0.02-0.21,1.27,1.92,0.78,1c-0.15-0.28-0.33-0.58-0.51-0.84
				c-0.6-0.91,0.65,2.27,0.3,0.72c-0.78-3.4-1.94-6.77-3.08-10.06c-0.25-0.72-0.54-1.42-0.75-2.15c-0.05-0.16-0.32-1-0.25-1.07
				c0.13-0.13,0.08,2.74,0.2,0.98c0.02-0.26,0.03-0.54,0.03-0.8c-0.01-1.23-0.51,2.16-0.11,1.01c0.09-0.24,0.15-0.52,0.21-0.77
				c0.47-1.79-1.06,1.96-0.11,0.37c0.81-1.35-1.61,1.64-0.04,0.03c0.2-0.2,0.41-0.4,0.62-0.59c0.13-0.11,0.26-0.22,0.38-0.33
				c1.73-1.52,3.47-3.03,5.2-4.54c5.19-4.53,10.38-9.05,15.57-13.58c1.23-1.07,2.58-2.09,3.68-3.29c5.94-6.42,7.4-16.35,2.67-23.93
				c-2.19-3.51-5.42-6.63-8.13-9.73c-4.53-5.19-9.06-10.38-13.58-15.58c-4.51-5.17-9.01-10.33-13.52-15.5
				c-2.84-3.25-5.45-6.7-8.99-9.24c-7.34-5.26-17.32-3.88-23.99,1.65c-1.3,1.07-2.55,2.21-3.82,3.31
				c-5.17,4.51-10.34,9.01-15.51,13.52c-0.77,0.68-1.55,1.35-2.32,2.03c-0.17,0.15-0.35,0.29-0.51,0.44
				c-0.02,0.02-0.05,0.04-0.07,0.06c1.19-1.26,1.46-1,0.85-0.68c-0.34,0.18-0.92,0.44-1.21,0.67c0.22-0.18,2.24-0.69,0.8-0.41
				c-0.26,0.05-0.54,0.11-0.79,0.18c-1.19,0.32,2.2-0.07,0.98-0.17c-0.26-0.02-0.55-0.01-0.81-0.01c-1.73,0.01,1.04,0.03,0.97,0.13
				c-0.13,0.19-0.87-0.37-1.06-0.29c0.18-0.08,2.18,1.16,0.79,0.32c-0.35-0.21-0.71-0.42-1.07-0.63c-3-1.78-6.05-3.47-9.17-5.03
				c-1.52-0.76-3.05-1.49-4.59-2.19c-0.7-0.32-1.41-0.61-2.1-0.94c-0.31-0.15-0.62-0.31-0.92-0.49c-1.48-0.89,0.35,0.04,0.52,0.47
				c-0.09-0.23-1.77-1.99-0.61-0.5c1.4,1.79-0.91-2.16,0-0.03c0.75,1.78-0.25-0.47-0.11-0.77c0.05-0.11,0.06,2.76,0.17,1.06
				c0.02-0.35,0-0.7,0.02-1.05c0.08-1.61,0.22-3.22,0.33-4.83c0.47-6.87,0.94-13.73,1.41-20.6c0.12-1.78,0.39-3.64,0.29-5.43
				c-0.5-8.55-6.06-16.12-14.46-18.44c-4.06-1.12-8.87-0.98-13.05-1.27c-6.8-0.46-13.59-0.93-20.39-1.39
				c-6.92-0.47-13.84-0.95-20.76-1.42c-3.89-0.27-7.9-0.86-11.78-0.34c-7.96,1.07-15.04,7.15-16.62,15.2
				c-0.55,2.78-0.61,5.7-0.81,8.53c-0.24,3.56-0.49,7.12-0.73,10.68c-0.1,1.53-0.21,3.06-0.31,4.59c-0.05,0.73-0.25,1.62-0.16,2.35
				c0,0.01-0.01,0.1-0.01,0.1c-0.19,0.02,0.64-2.64,0.12-1.05c-0.04,0.12-0.24,1-0.28,0.98c-0.09-0.02,0.98-1.97,0.5-1.16
				c-0.17,0.29-0.31,0.6-0.49,0.88c-1.05,1.7,1.3-1.25,0.13-0.2c-0.15,0.14-0.52,0.59-0.75,0.68c0.03-0.01,2.13-1.34,0.73-0.65
				c-0.23,0.11-0.46,0.24-0.68,0.36c-0.69,0.4-0.18-0.19,1.13-0.48c-0.15,0.03-0.29,0.1-0.43,0.15c-2.36,0.75-4.7,1.6-7.05,2.41
				c-5,1.71-9.99,3.41-14.99,5.12c-4.82,1.64-8.5,6.77-6.81,11.99C156.28,96.96,161.56,100.75,166.73,98.99L166.73,98.99z"/>
		</g>
	</g>
	<g>
		<g>
			<path d="M288.8,199.35c1.45,2.53,2.75,5.14,3.9,7.82c-0.33-0.78-0.66-1.55-0.98-2.33c2.37,5.62,4.01,11.49,4.83,17.53
				c-0.12-0.86-0.23-1.73-0.35-2.59c0.74,5.69,0.75,11.42,0.01,17.11c0.12-0.86,0.23-1.73,0.35-2.59
				c-0.77,5.7-2.27,11.26-4.48,16.57c0.33-0.78,0.66-1.55,0.98-2.33c-2.27,5.37-5.23,10.41-8.8,15.03c0.51-0.66,1.02-1.32,1.52-1.97
				c-3.74,4.8-8.08,9.08-12.88,12.8c0.66-0.51,1.32-1.02,1.97-1.52c-5.38,4.14-11.29,7.54-17.53,10.19
				c0.78-0.33,1.55-0.66,2.33-0.98c-7.04,2.96-14.44,4.94-22.01,5.96c0.86-0.12,1.73-0.23,2.59-0.35
				c-7.96,1.04-16.02,1.01-23.98-0.04c0.86,0.12,1.73,0.23,2.59,0.35c-8.09-1.1-16.01-3.22-23.54-6.37
				c0.78,0.33,1.55,0.66,2.33,0.98c-7.02-2.97-13.65-6.81-19.68-11.47c0.66,0.51,1.32,1.02,1.97,1.52
				c-5.42-4.22-10.31-9.07-14.52-14.5c0.51,0.66,1.02,1.32,1.52,1.97c-3.93-5.11-7.22-10.68-9.74-16.62
				c0.33,0.78,0.66,1.55,0.98,2.33c-2.28-5.48-3.88-11.21-4.69-17.09c0.12,0.86,0.23,1.73,0.35,2.59
				c-0.77-5.75-0.78-11.55-0.03-17.3c-0.12,0.86-0.23,1.73-0.35,2.59c0.78-5.79,2.32-11.44,4.59-16.82
				c-0.33,0.78-0.66,1.55-0.98,2.33c2.25-5.27,5.18-10.21,8.68-14.75c-0.51,0.66-1.02,1.32-1.52,1.97c3.75-4.81,8.1-9.1,12.91-12.83
				c-0.66,0.51-1.32,1.02-1.97,1.52c5.41-4.15,11.33-7.56,17.61-10.22c-0.78,0.33-1.55,0.66-2.33,0.98
				c6.97-2.92,14.29-4.88,21.78-5.9c-0.86,0.12-1.73,0.23-2.59,0.35c2.53-0.34,5.07-0.57,7.63-0.69c2.58-0.13,5.04-1,6.89-2.86
				c1.69-1.69,2.96-4.47,2.86-6.89c-0.11-2.52-0.94-5.14-2.86-6.89c-1.85-1.7-4.3-2.98-6.89-2.86c-14.59,0.73-28.9,4.48-41.75,11.5
				c-12.09,6.61-22.55,16.21-30.02,27.8c-7.47,11.6-11.53,25.44-11.73,39.22c-0.2,13.51,3.49,26.97,10.02,38.75
				c6.74,12.17,16.58,22.35,27.96,30.25c11.51,8,25.14,13.42,38.95,15.72c14.7,2.44,29.74,2.06,44.14-1.98
				c13.36-3.75,25.8-10.47,36.12-19.76c10.02-9.01,17.56-20.67,21.74-33.47c5.15-15.76,4.7-33.6-1.21-49.08
				c-1.65-4.32-3.56-8.55-5.86-12.57c-2.53-4.43-8.94-6.33-13.34-3.5C287.83,188.89,286.09,194.61,288.8,199.35L288.8,199.35z"/>
		</g>
	</g>
</g>
</svg>
