<?xml version="1.0" encoding="utf-8"?>
<!-- Generator: Adobe Illustrator 26.2.1, SVG Export Plug-In . SVG Version: 6.00 Build 0)  -->
<svg version="1.1" id="Layer_1" xmlns="http://www.w3.org/2000/svg" xmlns:xlink="http://www.w3.org/1999/xlink" x="0px" y="0px"
	 viewBox="0 0 450 450" style="enable-background:new 0 0 450 450;" xml:space="preserve">
<g>
	<g>
		<path d="M47.85,348.72c19.48-2.69,40.08-8.75,53.52-24.02c12.93-14.7,17.97-34.15,21.55-52.94c5.95-31.31,4.67-63.14,6.94-94.78
			c0.29-3.97,0.63-7.94,1.07-11.9c0.2-1.81,0.42-3.62,0.65-5.42c0.19-1.49-0.36,2.5-0.03,0.22c0.07-0.45,0.13-0.9,0.2-1.35
			c0.15-1.01,0.31-2.03,0.47-3.04c1.17-7.2,2.65-14.39,4.75-21.38c0.81-2.69,1.71-5.35,2.71-7.98c0.47-1.25,1.01-2.48,1.48-3.73
			c-1.15,3.05-0.2,0.49,0.11-0.22c0.31-0.7,0.62-1.39,0.94-2.08c2.47-5.35,5.31-10.52,8.47-15.49c1.62-2.54,3.33-5.02,5.12-7.45
			c0.39-0.53,0.77-1.19,1.25-1.65c-0.06,0.06-1.55,1.96-0.57,0.75c0.22-0.27,0.43-0.54,0.64-0.81c0.97-1.21,1.96-2.41,2.97-3.58
			c3.81-4.42,7.95-8.58,12.38-12.39c1.1-0.95,2.22-1.87,3.36-2.77c1.77-1.4-1.75,1.32,0.05-0.04c0.68-0.51,1.37-1.02,2.06-1.51
			c2.35-1.68,4.77-3.26,7.25-4.72c2.55-1.5,5.17-2.89,7.85-4.14c0.61-0.29,1.23-0.57,1.85-0.84c0.12-0.05,0.9-0.43,0.93-0.4
			c0.01,0.01-2.42,0.98-0.93,0.4c1.42-0.55,2.83-1.11,4.27-1.6c2.72-0.94,5.5-1.74,8.31-2.39c1.33-0.31,2.67-0.58,4.01-0.82
			c0.76-0.13,1.52-0.25,2.28-0.37c1.22-0.2-2.29,0.28-1.06,0.14c0.43-0.05,0.86-0.11,1.28-0.15c6.07-0.67,12.15-0.57,18.21,0.1
			c1.24,0.14-2.25-0.33-1.02-0.14c0.35,0.05,0.69,0.1,1.04,0.16c0.78,0.12,1.55,0.25,2.32,0.4c1.53,0.29,3.05,0.62,4.56,1
			c2.81,0.71,5.58,1.58,8.29,2.59c0.63,0.24,1.26,0.49,1.89,0.74c1.49,0.59-0.94-0.38-0.93-0.4c0.01-0.01,0.81,0.35,0.93,0.4
			c1.38,0.61,2.75,1.26,4.1,1.95c2.54,1.3,5.01,2.72,7.41,4.27c1.2,0.77,2.38,1.57,3.53,2.4c0.55,0.39,1.09,0.79,1.62,1.19
			c0.32,0.24,1.27,0.97,0.01,0c-1.41-1.09,0.11,0.09,0.4,0.32c2.23,1.78,4.38,3.67,6.44,5.65c2.13,2.04,4.17,4.17,6.12,6.38
			c0.89,1.01,1.77,2.04,2.62,3.09c0.43,0.52,0.85,1.05,1.27,1.58c0.98,1.22-0.55-0.75-0.59-0.77c0.28,0.17,0.72,0.95,0.92,1.21
			c3.43,4.61,6.51,9.47,9.23,14.53c1.39,2.59,2.69,5.22,3.89,7.9c0.27,0.61,0.54,1.22,0.81,1.83c0.48,1.1-0.85-2.06-0.4-0.95
			c0.13,0.31,0.25,0.62,0.38,0.92c0.56,1.38,1.1,2.78,1.61,4.18c2.23,6.13,3.9,12.43,5.26,18.81c0.8,3.74,1.49,7.51,2.08,11.29
			c0.28,1.75,0.7,3.58,0.79,5.35c-0.13-2.88,0.04,0.38,0.13,1.09c0.12,1.01,0.24,2.01,0.36,3.02c1.77,15.51,2.48,31.1,3.78,46.65
			c1.28,15.32,2.98,30.83,6.89,45.73c3.03,11.56,7.56,22.86,13.37,33.3c12.15,21.81,30.63,39.81,54.14,48.78
			c5.42,2.07,11.05,3.51,16.79,4.38c0.86-6.38,1.73-12.77,2.59-19.15c-38.2,1.52-76.41,2.63-114.62,3.82
			c-33.11,1.03-66.27,1.72-99.32,4.12c-9.48,0.69-18.96,1.43-28.44,2.22c-5.02,0.42-10.07,4.13-9.75,9.75
			c0.33,5.71,1.11,11.43,1.98,17.08c1.53,9.94,3.93,19.65,8.05,28.85c1.94,4.32,4.56,8.57,7.98,11.89c1.89,1.84,4.05,3.45,6.43,4.6
			c4.36,2.11,8.92,3.93,13.58,5.26c15.8,4.52,32.79,3.92,48.61-0.2c3.47-0.9,6.89-1.99,10.25-3.25c3.8-1.42,7.72-2.87,11.22-4.93
			c8.45-4.98,14.97-12.76,20.28-20.86c2.81-4.27,0.99-10.97-3.5-13.34c-4.88-2.58-10.35-1.06-13.34,3.5
			c-1.01,1.54-2.22,2.99-3.19,4.55c0.11-0.17,1.43-1.8,0.39-0.52c-0.26,0.32-0.51,0.64-0.77,0.95c-0.65,0.78-1.31,1.54-1.99,2.29
			c-1.2,1.31-2.46,2.57-3.8,3.76c-0.57,0.51-1.2,0.97-1.77,1.49c2.13-1.97-0.01-0.02-0.76,0.47c-1.36,0.9-2.78,1.68-4.26,2.36
			c-0.55,0.25-1.1,0.48-1.65,0.72c3.14-1.4,0.52-0.23-0.26,0.08c-2.78,1.1-5.61,2.08-8.48,2.94c-3.1,0.93-6.24,1.71-9.42,2.33
			c-1.57,0.31-3.14,0.56-4.72,0.8c-1.36,0.21,2.63-0.3,0.61-0.09c-0.38,0.04-0.76,0.09-1.15,0.13c-0.96,0.1-1.93,0.19-2.9,0.26
			c-3.57,0.27-7.16,0.31-10.74,0.1c-0.81-0.05-1.63-0.11-2.44-0.18c-0.41-0.04-0.82-0.08-1.23-0.12c-0.28-0.03-2.26-0.39-0.55-0.05
			c1.52,0.31,0.15,0.02-0.25-0.04c-0.52-0.08-1.03-0.16-1.55-0.25c-1.04-0.18-2.08-0.38-3.11-0.61c-3.73-0.82-7.39-1.93-10.94-3.33
			c-0.72-0.28-1.99-0.38,0.14,0.08c-0.38-0.08-0.92-0.41-1.25-0.56c-0.71-0.32-1.42-0.65-2.11-1.01c-0.36-0.19-0.72-0.39-1.06-0.62
			c-0.19-0.12-0.38-0.26-0.57-0.39c-1.08-0.69,1.96,1.63,1.19,0.93c-0.61-0.56-1.23-1.08-1.8-1.68c-0.31-0.33-0.6-0.68-0.9-1.02
			c-1.01-1.15,1.73,2.37,0.38,0.49c-1.17-1.63-2.16-3.38-3.05-5.18c-0.45-0.92-1.84-4.4-0.41-0.76c-0.41-1.03-0.82-2.06-1.19-3.1
			c-0.77-2.14-1.43-4.32-2.03-6.51c-1.17-4.3-2.08-8.67-2.82-13.06c-0.19-1.11-0.36-2.23-0.53-3.34c-0.08-0.53-0.15-1.06-0.23-1.59
			c-0.3-2.08,0.36,2.78,0.1,0.77c-0.22-1.73-0.42-3.47-0.6-5.2c-0.16-1.63-0.32-3.26-0.41-4.9c-3.25,3.25-6.5,6.5-9.75,9.75
			c20.83-1.74,41.67-3.32,62.56-4.12c37.98-1.46,75.97-2.53,113.96-3.72c21.96-0.69,43.91-1.44,65.86-2.31
			c4.88-0.19,8.92-3.56,9.58-8.45c0.58-4.32-2.18-9.97-6.98-10.7c-5.9-0.89-11.69-2.39-17.26-4.56c-0.74-0.29-3.16-1.47-0.24-0.07
			c-0.6-0.29-1.23-0.54-1.84-0.82c-1.36-0.63-2.71-1.29-4.03-1.99c-2.49-1.32-4.91-2.76-7.25-4.32c-1.1-0.73-2.18-1.49-3.24-2.27
			c-0.33-0.24-0.66-0.49-0.99-0.74c-0.95-0.71,1.72,1.36,0.8,0.62c-0.58-0.46-1.16-0.92-1.73-1.39c-2.23-1.84-4.36-3.78-6.41-5.81
			c-2.05-2.04-4.02-4.16-5.89-6.37c-0.86-1.01-1.69-2.04-2.52-3.08c-0.39-0.49-1.05-1.45,0.61,0.79c-0.2-0.27-0.4-0.53-0.6-0.79
			c-0.5-0.66-0.99-1.33-1.47-2.01c-3.35-4.67-6.33-9.59-8.98-14.68c-1.3-2.51-2.52-5.06-3.66-7.65c-0.13-0.3-0.26-0.61-0.4-0.91
			c-0.51-1.18,1,2.43,0.31,0.72c-0.25-0.61-0.5-1.23-0.75-1.84c-0.55-1.38-1.07-2.77-1.58-4.17c-1.88-5.22-3.43-10.55-4.65-15.96
			c-0.86-3.79-1.59-7.6-2.22-11.43c-0.31-1.89-0.61-3.79-0.88-5.68c-0.06-0.44-0.11-0.9-0.19-1.34c0.04,0.24,0.3,2.33,0.08,0.58
			c-0.13-1.01-0.26-2.01-0.38-3.02c-3.78-31.53-3.06-63.72-10.97-94.67c-6.03-23.6-18.66-46.3-36.91-62.63
			c-19.23-17.22-44.74-27.09-70.72-24.04c-13.1,1.54-25.56,5.58-37.03,12.15c-10.69,6.12-20.41,14.21-28.62,23.38
			c-17.28,19.29-28.56,42.85-33.42,68.24c-6.06,31.69-4.51,63.98-6.97,95.99c-0.3,3.87-0.66,7.73-1.1,11.58
			c-0.1,0.91-0.21,1.81-0.33,2.72c-0.02,0.18-0.32,2.44-0.09,0.74c0.2-1.48-0.01,0.03-0.06,0.4c-0.29,2.04-0.6,4.07-0.95,6.1
			c-0.95,5.57-2.07,11.12-3.38,16.61c-1.09,4.55-2.33,9.07-3.85,13.49c-0.35,1.03-0.72,2.05-1.11,3.07
			c-0.2,0.53-0.41,1.05-0.62,1.58c-0.09,0.23-0.19,0.46-0.28,0.69c-0.54,1.34,0.93-2.16,0.48-1.14c-0.84,1.92-1.72,3.82-2.71,5.67
			c-0.92,1.73-1.92,3.42-3,5.05c-0.5,0.75-1.02,1.5-1.55,2.22c-0.13,0.18-0.27,0.36-0.4,0.54c-0.76,1.05,1.01-1.24,0.91-1.17
			c-0.39,0.28-0.75,0.93-1.06,1.3c-1.26,1.5-2.61,2.93-4.03,4.27c-0.66,0.62-1.33,1.22-2.02,1.8c-0.39,0.33-0.79,0.65-1.19,0.97
			c-1.04,0.86,2.34-1.75,0.47-0.37c-3.38,2.49-7.04,4.56-10.87,6.28c-0.24,0.11-0.47,0.21-0.71,0.31c-1.28,0.58,1.32-0.54,1.25-0.52
			c-0.5,0.14-1,0.41-1.48,0.6c-1.14,0.45-2.3,0.87-3.46,1.27c-2.41,0.82-4.85,1.54-7.32,2.17c-5.37,1.38-10.83,2.36-16.32,3.11
			c-2.24,0.31-4.75,2.63-5.83,4.48c-1.22,2.09-1.74,5.17-0.98,7.51c0.76,2.36,2.23,4.64,4.48,5.83
			C42.82,349.05,45.1,349.1,47.85,348.72L47.85,348.72z"/>
	</g>
</g>
</svg>
