<?xml version="1.0" encoding="utf-8"?>
<!-- Generator: Adobe Illustrator 26.2.1, SVG Export Plug-In . SVG Version: 6.00 Build 0)  -->
<svg version="1.1" id="Layer_1" xmlns="http://www.w3.org/2000/svg" xmlns:xlink="http://www.w3.org/1999/xlink" x="0px" y="0px"
	 viewBox="0 0 450 450" style="enable-background:new 0 0 450 450;" xml:space="preserve">
<style type="text/css">
	.st0{fill:#3E8EDE;}
</style>
<g>
	<g>
		<path class="st0" d="M82.15,412.31c-1.89-34.46-3.8-68.93-3.9-103.45c-0.05-17.57,0.34-35.15,1.68-52.67
			c0.3-3.98,0.66-7.95,1.08-11.92c0.21-2.01,0.44-4.02,0.69-6.03c0.1-0.82,0.2-1.65,0.31-2.47c0.09-0.71,0.39-2.63-0.09,0.63
			c0.09-0.65,0.18-1.3,0.27-1.94c1.03-7.19,2.31-14.36,4.01-21.43c1.5-6.24,3.31-12.42,5.68-18.38c0.33-0.84,1.61-3.53,0.02-0.11
			c0.31-0.67,0.59-1.35,0.89-2.02c0.59-1.3,1.22-2.58,1.88-3.85c1.25-2.38,2.62-4.69,4.16-6.89c0.81-1.16,1.67-2.29,2.53-3.43
			c0.52-0.69,1.05-1.39,1.57-2.08c0.53-0.7,2.53-3.24,0.36-0.48c2.27-2.89,4.54-5.78,6.86-8.64c4.86-5.98,9.84-11.86,14.89-17.67
			c20.97-24.1,43.12-47.17,65.66-69.8c12.79-12.85,25.72-25.59,38.87-38.07c0.19-0.18,0.39-0.37,0.58-0.55c-4.6,0-9.19,0-13.79,0
			c20.36,24.17,42.26,46.87,64.72,69.07c16.46,16.26,33.13,32.36,47.52,50.53c-2.13-2.69-0.59-0.76-0.11-0.13
			c0.38,0.5,0.76,1.01,1.14,1.51c0.79,1.06,1.57,2.14,2.34,3.22c1.49,2.09,2.94,4.22,4.34,6.38c2.8,4.33,5.41,8.79,7.77,13.37
			c1.2,2.33,2.35,4.7,3.43,7.09c0.27,0.59,0.53,1.18,0.79,1.77c0.12,0.26,0.23,0.53,0.34,0.79c0.59,1.34-0.49-1.16-0.47-1.13
			c0.71,1.21,1.12,2.73,1.63,4.03c2.04,5.23,3.87,10.55,5.53,15.92c3.74,12.1,6.63,24.45,8.93,36.9c0.63,3.39,1.21,6.79,1.75,10.2
			c0.25,1.6,0.5,3.21,0.73,4.81c0.14,0.95,0.28,1.91,0.41,2.87c0.11,0.81,0.47,4.08,0.13,0.88c0.8,7.41,1.77,14.78,2.42,22.21
			c2.89,33.5,2.62,67.26,0.07,100.77c-0.34,4.45-0.72,8.9-1.14,13.35c3.25-3.25,6.5-6.5,9.75-9.75
			c-25.16-1.13-50.41-0.92-75.59-0.84c-2.42,0.01-4.84,0.02-7.26,0.03c3.25,3.25,6.5,6.5,9.75,9.75c-0.15-36.24-3-72.52-6.89-108.54
			c-0.3-2.79-0.61-5.59-0.94-8.38c-0.31-2.56-0.85-5.05-2.86-6.89c-1.91-1.75-4.25-2.86-6.89-2.86c-13.09,0-26.17,0-39.26,0
			c-20.85,0-41.69,0-62.54,0c-4.77,0-9.53,0-14.3,0c-5.34,0-9.66,4.47-9.75,9.75c-0.26,14.57-0.52,29.13-0.78,43.7
			c-0.42,23.19-0.83,46.38-1.25,69.57c-0.09,5.29-0.19,10.57-0.28,15.86c-0.09,5.1,4.55,9.98,9.75,9.75
			c5.36-0.24,9.65-4.28,9.75-9.75c0.26-14.57,0.52-29.13,0.78-43.7c0.42-23.19,0.83-46.38,1.25-69.57
			c0.09-5.29,0.19-10.57,0.28-15.86c-3.25,3.25-6.5,6.5-9.75,9.75c13.09,0,26.17,0,39.26,0c20.85,0,41.69,0,62.54,0
			c4.77,0,9.53,0,14.3,0c-3.25-3.25-6.5-6.5-9.75-9.75c3.24,26.93,5.43,54.05,6.79,81.14c0.6,11.92,0.99,23.85,1.04,35.78
			c0.02,5.25,4.45,9.78,9.75,9.75c20.78-0.13,41.57-0.11,62.34,0.24c6.84,0.11,13.67,0.26,20.5,0.57c2.33,0.1,5.32-1.14,6.89-2.86
			c1.84-2.01,2.6-4.19,2.86-6.89c3.25-34.37,4.16-69.01,1.89-103.47c-1.9-28.78-5.8-57.72-13.49-85.56
			c-6-21.72-14.57-42.59-27.69-61.01c-13.54-19.01-30.11-35.52-46.66-51.88c-21.61-21.37-43.05-42.85-63.02-65.78
			c-3.02-3.47-6.01-6.96-8.97-10.48c-1.46-1.74-4.67-2.96-6.89-2.86c-2.63,0.12-4.96,1.03-6.89,2.86
			c-11.09,10.48-21.97,21.19-32.78,31.95c-22.44,22.35-44.49,45.11-65.55,68.77c-10.69,12.01-21.06,24.29-30.87,37.03
			c-3.55,4.62-6.99,9.22-9.65,14.42c-3.1,6.06-5.57,12.48-7.56,18.98c-4.5,14.71-6.76,30.08-8.39,45.34
			c-1.82,17.08-2.53,34.28-2.75,51.45c-0.44,35.25,1.29,70.49,3.21,105.68c0.21,3.81,0.42,7.62,0.63,11.42
			c0.28,5.08,4.29,9.99,9.75,9.75C77.45,421.83,82.45,417.76,82.15,412.31L82.15,412.31z"/>
	</g>
</g>
</svg>
