<?xml version="1.0" encoding="utf-8"?>
<!-- Generator: Adobe Illustrator 26.2.1, SVG Export Plug-In . SVG Version: 6.00 Build 0)  -->
<svg version="1.1" id="Layer_1" xmlns="http://www.w3.org/2000/svg" xmlns:xlink="http://www.w3.org/1999/xlink" x="0px" y="0px"
	 viewBox="0 0 450 450" style="enable-background:new 0 0 450 450;" xml:space="preserve">
<style type="text/css">
	.st0{fill:#9D9D9D;}
</style>
<g>
	<g>
		<g>
			<path class="st0" d="M233.63,126.32c3.08,1.96,6.06,4.05,8.95,6.28c-0.66-0.51-1.32-1.02-1.97-1.52
				c7.96,6.17,15.1,13.33,21.26,21.3c-0.51-0.66-1.02-1.32-1.52-1.97c6.1,7.94,11.18,16.62,15.1,25.84
				c-0.33-0.78-0.66-1.55-0.98-2.33c4.03,9.56,6.78,19.61,8.18,29.88c-0.12-0.86-0.23-1.73-0.35-2.59c1.39,10.42,1.4,21,0.02,31.43
				c0.12-0.86,0.23-1.73,0.35-2.59c-1.38,10.27-4.11,20.31-8.12,29.86c0.33-0.78,0.66-1.55,0.98-2.33
				c-3.94,9.32-9.07,18.1-15.25,26.12c0.51-0.66,1.02-1.32,1.52-1.97c-6.16,7.95-13.3,15.09-21.25,21.25
				c0.66-0.51,1.32-1.02,1.97-1.52c-8.02,6.17-16.8,11.31-26.12,15.25c0.78-0.33,1.55-0.66,2.33-0.98
				c-9.55,4.01-19.6,6.74-29.86,8.12c0.86-0.12,1.73-0.23,2.59-0.35c-10.37,1.37-20.89,1.37-31.25,0c0.86,0.12,1.73,0.23,2.59,0.35
				c-10.27-1.38-20.31-4.11-29.86-8.12c0.78,0.33,1.55,0.66,2.33,0.98c-9.32-3.94-18.1-9.07-26.12-15.25
				c0.66,0.51,1.32,1.02,1.97,1.52c-7.95-6.16-15.09-13.3-21.25-21.25c0.51,0.66,1.02,1.32,1.52,1.97
				c-6.17-8.02-11.31-16.8-15.25-26.12c0.33,0.78,0.66,1.55,0.98,2.33c-4.01-9.55-6.74-19.6-8.12-29.86
				c0.12,0.86,0.23,1.73,0.35,2.59c-1.37-10.37-1.37-20.89,0-31.25c-0.12,0.86-0.23,1.73-0.35,2.59
				c1.38-10.27,4.11-20.31,8.12-29.86c-0.33,0.78-0.66,1.55-0.98,2.33c3.94-9.32,9.07-18.1,15.25-26.12
				c-0.51,0.66-1.02,1.32-1.52,1.97c6.16-7.95,13.3-15.09,21.25-21.25c-0.66,0.51-1.32,1.02-1.97,1.52
				c8.02-6.17,16.8-11.31,26.12-15.25c-0.78,0.33-1.55,0.66-2.33,0.98c9.55-4.01,19.6-6.74,29.86-8.12
				c-0.86,0.12-1.73,0.23-2.59,0.35c5.18-0.68,10.4-1.02,15.63-1.03c5.1-0.01,9.99-4.48,9.75-9.75c-0.24-5.28-4.28-9.76-9.75-9.75
				c-23.46,0.03-46.89,6.57-66.83,18.99c-19.21,11.96-35.33,29.1-45.76,49.21c-10.86,20.94-15.94,44.87-14.03,68.42
				c1.88,23.15,9.8,45.77,23.57,64.55c13.44,18.33,31.35,33.28,52.34,42.22c5.71,2.44,11.49,4.6,17.49,6.22
				c6.01,1.62,12.11,2.66,18.28,3.45c12.03,1.53,24.09,1.04,36.05-0.86c22.81-3.62,44.19-14.04,61.72-28.96
				c17.35-14.76,30.33-34.42,37.64-55.95c7.97-23.48,8.61-49.56,2.16-73.48c-6.52-24.19-20.5-46.55-39.55-62.84
				c-4.87-4.16-10.03-8.03-15.43-11.47c-4.31-2.74-10.94-1.04-13.34,3.5C227.59,117.81,229.03,123.4,233.63,126.32L233.63,126.32z"
				/>
		</g>
	</g>
	<g>
		<g>
			<path class="st0" d="M396.05,415.61c-1.12-1.12-2.25-2.25-3.37-3.37c-3.06-3.06-6.12-6.12-9.18-9.18
				c-4.52-4.52-9.05-9.05-13.57-13.57c-5.52-5.52-11.04-11.04-16.56-16.56c-6.02-6.02-12.03-12.03-18.05-18.05
				c-6.1-6.1-12.21-12.21-18.31-18.31c-5.69-5.69-11.38-11.38-17.08-17.08c-4.81-4.81-9.62-9.62-14.43-14.43
				c-3.46-3.46-6.92-6.92-10.38-10.38c-1.64-1.64-3.26-3.3-4.92-4.92c-0.07-0.07-0.14-0.14-0.21-0.21c-3.61-3.61-10.23-3.88-13.79,0
				c-3.57,3.89-3.85,9.93,0,13.79c1.12,1.12,2.25,2.25,3.37,3.37c3.06,3.06,6.12,6.12,9.18,9.18c4.52,4.52,9.05,9.05,13.57,13.57
				c5.52,5.52,11.04,11.04,16.56,16.56c6.02,6.02,12.03,12.03,18.05,18.05c6.1,6.1,12.21,12.21,18.31,18.31
				c5.69,5.69,11.38,11.38,17.08,17.08c4.81,4.81,9.62,9.62,14.43,14.43c3.46,3.46,6.92,6.92,10.38,10.38
				c1.64,1.64,3.26,3.3,4.92,4.92c0.07,0.07,0.14,0.14,0.21,0.21c3.61,3.61,10.23,3.88,13.79,0
				C399.63,425.51,399.91,419.47,396.05,415.61L396.05,415.61z"/>
		</g>
	</g>
	<g>
		<g>
			<path class="st0" d="M148.99,147.61c9.97-0.98,20.04-0.99,29.98,0.34c-0.86-0.12-1.73-0.23-2.59-0.35
				c8.42,1.15,16.69,3.28,24.53,6.57c-0.78-0.33-1.55-0.66-2.33-0.98c6.61,2.8,12.85,6.4,18.54,10.78
				c-0.66-0.51-1.32-1.02-1.97-1.52c5.61,4.35,10.62,9.42,14.98,15.03c-0.51-0.66-1.02-1.32-1.52-1.97
				c5.16,6.71,9.34,14.11,12.64,21.89c-0.33-0.78-0.66-1.55-0.98-2.33c3.73,8.87,5.99,18.12,8.24,27.44
				c1.19,4.96,7.1,8.39,11.99,6.81c5.16-1.67,8.09-6.68,6.81-11.99c-1.99-8.25-3.93-16.48-7.01-24.42
				c-2.2-5.68-4.7-11.26-7.72-16.55c-2.89-5.05-6.27-9.78-9.93-14.3c-6.57-8.09-14.71-15.02-23.65-20.37
				c-9.22-5.52-19.56-9.44-30.08-11.63c-11.73-2.44-23.81-3.14-35.76-2.3c-1.38,0.1-2.76,0.22-4.14,0.35
				c-2.65,0.26-4.95,0.91-6.89,2.86c-1.69,1.69-2.96,4.47-2.86,6.89c0.11,2.52,0.94,5.14,2.86,6.89
				C143.89,146.4,146.46,147.86,148.99,147.61L148.99,147.61z"/>
		</g>
	</g>
</g>
</svg>
