<?xml version="1.0" encoding="utf-8"?>
<!-- Generator: Adobe Illustrator 26.2.1, SVG Export Plug-In . SVG Version: 6.00 Build 0)  -->
<svg version="1.1" id="Layer_1" xmlns="http://www.w3.org/2000/svg" xmlns:xlink="http://www.w3.org/1999/xlink" x="0px" y="0px"
	 viewBox="0 0 450 450" style="enable-background:new 0 0 450 450;" xml:space="preserve">
<style type="text/css">
	.st0{fill:#FEC10D;}
</style>
<g>
	<g>
		<g>
			<path class="st0" d="M258.75,392.42c-7.62-4.82-15.11-9.87-22.43-15.14c-3.58-2.58-7.13-5.21-10.63-7.9
				c-0.48-0.37-2.11-1.67,0.15,0.12c-0.45-0.36-0.91-0.71-1.36-1.06c-0.76-0.59-1.51-1.18-2.26-1.78c-1.81-1.43-3.6-2.87-5.39-4.32
				c-13.84-11.28-27.01-23.37-39.45-36.17c-6.29-6.47-12.39-13.13-18.29-19.95c-2.89-3.34-5.73-6.72-8.52-10.14
				c-1.34-1.64-2.66-3.28-3.97-4.94c-0.72-0.9-1.43-1.81-2.14-2.71c-0.35-0.45-0.71-0.91-1.06-1.36c-1.29-1.66,1.39,1.82,0.12,0.15
				c-10.84-14.19-20.93-28.93-30.12-44.26c-2.57-4.28-5.06-8.6-7.49-12.96c-1.23-2.21-2.4-4.45-3.5-6.73
				c-0.59-1.22-1.16-2.45-1.7-3.69c-0.26-0.59-0.93-2.52,0.07,0.2c-0.2-0.54-0.44-1.07-0.66-1.6c-3.78-9.39-6.35-19.23-7.73-29.25
				c0.12,0.86,0.23,1.73,0.35,2.59c-1.48-11.09-1.46-22.31,0.02-33.39c-0.12,0.86-0.23,1.73-0.35,2.59
				c0.77-5.55,1.89-11.05,3.38-16.45c0.74-2.67,1.57-5.31,2.48-7.92c0.44-1.27,0.91-2.52,1.39-3.78c0.24-0.63,0.49-1.25,0.74-1.87
				c0.14-0.36,0.29-0.71,0.44-1.07c0.45-1.12-1.02,2.33-0.19,0.47c2.28-5.15,4.83-10.15,7.74-14.97c1.29-2.13,2.64-4.22,4.06-6.27
				c0.7-1.01,1.41-2.01,2.14-3c0.36-0.49,0.73-0.99,1.1-1.47c1.3-1.71-1.28,1.63,0.08-0.1c3.18-4.02,6.61-7.84,10.26-11.43
				c1.78-1.75,3.62-3.46,5.5-5.1c0.91-0.79,1.83-1.57,2.76-2.34c0.46-0.38,0.93-0.76,1.4-1.14c0.27-0.21,0.54-0.43,0.81-0.64
				c1.02-0.81-0.55,0.41-0.75,0.58c3.84-3.22,8.27-5.93,12.58-8.46c4.36-2.56,8.87-4.86,13.5-6.87c0.24-0.1,0.47-0.2,0.71-0.3
				c1.1-0.47-2.2,0.91-0.67,0.29c0.64-0.26,1.27-0.52,1.91-0.76c1.28-0.5,2.57-0.98,3.86-1.44c2.67-0.94,5.38-1.8,8.11-2.56
				c5.58-1.55,11.27-2.7,17.01-3.47c-0.86,0.12-1.73,0.23-2.59,0.35c15.26-1.99,30.8-0.91,46.01,1.11
				c-0.86-0.12-1.73-0.23-2.59-0.35c12.91,1.75,25.66,4.6,37.98,8.84c2.96,1.02,5.89,2.11,8.79,3.28c0.35,0.14,0.7,0.29,1.05,0.43
				c1.5,0.61-0.63-0.27-0.76-0.32c0.69,0.31,1.39,0.6,2.08,0.9c1.55,0.69,3.1,1.4,4.63,2.13c5.77,2.77,11.37,5.88,16.73,9.37
				c2.59,1.69,5.13,3.46,7.6,5.32c1.87,1.41-1.58-1.26,0.25,0.19c0.59,0.46,1.17,0.93,1.75,1.41c1.23,1.01,2.45,2.04,3.65,3.09
				c4.72,4.16,9.13,8.68,13.14,13.52c0.45,0.55,0.9,1.1,1.34,1.65c0.47,0.59,1.89,2.57,0.11,0.12c0.94,1.28,1.9,2.54,2.81,3.84
				c1.67,2.37,3.24,4.81,4.74,7.29c3.04,5.07,5.47,10.36,8.01,15.69c-1.39-2.92-0.07-0.16,0.23,0.59c0.29,0.73,0.58,1.47,0.86,2.21
				c0.6,1.56,1.16,3.13,1.7,4.72c1.08,3.17,2.06,6.39,2.92,9.63c1.74,6.53,3.04,13.18,3.95,19.87c-0.12-0.86-0.23-1.73-0.35-2.59
				c2.22,16.63,2.02,33.5-0.2,50.11c0.12-0.86,0.23-1.73,0.35-2.59c-1.47,10.79-3.82,21.43-6.93,31.87
				c-1.74,5.85-3.71,11.64-5.85,17.35c-1.09,2.9-2.23,5.79-3.41,8.65c-0.12,0.29-0.24,0.57-0.36,0.86
				c-0.64,1.55,0.16-0.45,0.26-0.61c-0.36,0.61-0.57,1.34-0.85,2c-0.62,1.42-1.24,2.84-1.88,4.26
				c-10.11,22.49-22.72,43.76-36.1,64.43c-7.54,11.64-15.34,23.12-23.15,34.58c-2.88,4.23-0.94,11,3.5,13.34
				c4.94,2.61,10.27,1.01,13.34-3.5c19.33-28.38,38.73-56.92,53.95-87.78c14.78-29.95,25.52-61.77,27.92-95.24
				c2.19-30.6-2.71-62.11-16.63-89.62c-14.31-28.29-38.89-49.93-67.68-62.76c-14.93-6.65-30.54-11.41-46.65-14.16
				c-9.54-1.63-19.18-2.71-28.84-3.29c-7.78-0.47-15.53-0.57-23.29,0.19c-30.32,2.98-58.94,15.83-80.97,36.97
				c-23.53,22.58-37.82,53.42-40.74,85.8c-1.45,16.09,0.22,32.67,4.74,48.18c4.64,15.9,12.69,30.25,21.28,44.31
				c16.79,27.47,36.44,53.29,58.39,76.83c21.97,23.56,46.42,44.79,72.74,63.38c6.27,4.43,12.66,8.7,19.15,12.8
				c4.32,2.73,10.94,1.05,13.34-3.5C264.79,400.95,263.36,395.34,258.75,392.42L258.75,392.42z"/>
		</g>
	</g>
	<g>
		<g>
			<path class="st0" d="M205.03,120.52c-4.49,3.43-8.77,7.04-12.64,11.17c-3.79,4.05-7.26,8.45-10.35,13.05
				c-5.72,8.52-10.17,18.28-12.32,28.34c-2.25,10.52-2.33,21.64,0.91,31.97c2.96,9.42,8.33,18.13,15.9,24.53
				c14.8,12.52,35.05,17.64,54,13.24c9.29-2.16,18.11-7.01,24.79-13.82c6.77-6.89,11.56-15.76,13.94-25.09
				c4.84-18.92,0.7-39.95-12.42-54.65c-1.36-1.53-2.84-2.94-4.41-4.25c-2.04-1.69-4.16-2.86-6.89-2.86c-2.39,0-5.25,1.06-6.89,2.86
				c-1.71,1.86-2.97,4.3-2.86,6.89c0.11,2.45,0.9,5.26,2.86,6.89c2.33,1.94,4.43,4.13,6.3,6.52c-0.51-0.66-1.02-1.32-1.52-1.97
				c2.34,3.05,4.25,6.39,5.75,9.92c-0.33-0.78-0.66-1.55-0.98-2.33c1.69,4.06,2.82,8.31,3.43,12.66c-0.12-0.86-0.23-1.73-0.35-2.59
				c0.64,4.8,0.64,9.65-0.01,14.45c0.12-0.86,0.23-1.73,0.35-2.59c-0.62,4.46-1.79,8.82-3.54,12.97c0.33-0.78,0.66-1.55,0.98-2.33
				c-1.51,3.53-3.43,6.87-5.77,9.92c0.51-0.66,1.02-1.32,1.52-1.97c-2.12,2.73-4.54,5.18-7.26,7.31c0.66-0.51,1.32-1.02,1.97-1.52
				c-2.85,2.2-5.95,4-9.26,5.41c0.78-0.33,1.55-0.66,2.33-0.98c-3.77,1.57-7.72,2.61-11.76,3.16c0.86-0.12,1.73-0.23,2.59-0.35
				c-4.49,0.58-9.02,0.55-13.51-0.03c0.86,0.12,1.73,0.23,2.59,0.35c-4.71-0.64-9.31-1.89-13.69-3.72c0.78,0.33,1.55,0.66,2.33,0.98
				c-3.97-1.68-7.71-3.83-11.14-6.45c0.66,0.51,1.32,1.02,1.97,1.52c-2.98-2.31-5.68-4.96-8-7.93c0.51,0.66,1.02,1.32,1.52,1.97
				c-2.28-2.96-4.13-6.18-5.58-9.62c0.33,0.78,0.66,1.55,0.98,2.33c-1.58-3.82-2.66-7.82-3.23-11.91c0.12,0.86,0.23,1.73,0.35,2.59
				c-0.63-4.77-0.58-9.58,0.05-14.35c-0.12,0.86-0.23,1.73-0.35,2.59c0.81-5.83,2.45-11.5,4.73-16.93
				c-0.33,0.78-0.66,1.55-0.98,2.33c2.81-6.61,6.51-12.79,10.9-18.47c-0.51,0.66-1.02,1.32-1.52,1.97
				c4.49-5.76,9.65-10.96,15.41-15.44c-0.66,0.51-1.32,1.02-1.97,1.52c0.19-0.15,0.39-0.3,0.58-0.44c2.11-1.61,3.75-3.16,4.48-5.83
				c0.64-2.33,0.35-5.44-0.98-7.51c-1.34-2.08-3.34-3.91-5.83-4.48C210.17,119,207.06,118.97,205.03,120.52L205.03,120.52z"/>
		</g>
	</g>
</g>
</svg>
