<?xml version="1.0" encoding="utf-8"?>
<!-- Generator: Adobe Illustrator 26.2.1, SVG Export Plug-In . SVG Version: 6.00 Build 0)  -->
<svg version="1.1" id="Layer_1" xmlns="http://www.w3.org/2000/svg" xmlns:xlink="http://www.w3.org/1999/xlink" x="0px" y="0px"
	 viewBox="0 0 450 450" style="enable-background:new 0 0 450 450;" xml:space="preserve">
<style type="text/css">
	.st0{fill:#FFFFFF;}
</style>
<g>
	
		<ellipse transform="matrix(0.2964 -0.9551 0.9551 0.2964 -57.0498 373.5647)" class="st0" cx="225" cy="225.5" rx="194.72" ry="241.11"/>
	<g>
		<g>
			<g>
				<path d="M372.6,253.25c-1.39,6.88-3.45,13.61-6.16,20.08c0.33-0.78,0.66-1.55,0.98-2.33c-3.68,8.69-8.5,16.83-14.27,24.3
					c0.51-0.66,1.02-1.32,1.52-1.97c-6.4,8.23-13.88,15.55-22.12,21.93c0.66-0.51,1.32-1.02,1.97-1.52
					c-9.98,7.68-20.99,13.93-32.59,18.83c0.78-0.33,1.55-0.66,2.33-0.98c-14.01,5.88-28.8,9.76-43.85,11.81
					c0.86-0.12,1.73-0.23,2.59-0.35c-17.26,2.31-34.78,2.21-52.04-0.09c0.86,0.12,1.73,0.23,2.59,0.35
					c-17.72-2.4-35.1-7.06-51.59-13.98c0.78,0.33,1.55,0.66,2.33,0.98c-14.68-6.2-28.59-14.16-41.23-23.89
					c0.66,0.51,1.32,1.02,1.97,1.52c-10.79-8.34-20.58-17.93-28.94-28.72c0.51,0.66,1.02,1.32,1.52,1.97
					c-7.04-9.14-13.01-19.09-17.52-29.72c0.33,0.78,0.66,1.55,0.98,2.33c-3.97-9.42-6.76-19.31-8.13-29.44
					c0.12,0.86,0.23,1.73,0.35,2.59c-1.21-9.2-1.24-18.52-0.04-27.72c-0.12,0.86-0.23,1.73-0.35,2.59c1.24-9.2,3.68-18.2,7.27-26.76
					c-0.33,0.78-0.66,1.55-0.98,2.33c3.68-8.69,8.5-16.83,14.27-24.3c-0.51,0.66-1.02,1.32-1.52,1.97
					c6.4-8.23,13.88-15.55,22.12-21.93c-0.66,0.51-1.32,1.02-1.97,1.52c9.98-7.68,20.99-13.93,32.59-18.83
					c-0.78,0.33-1.55,0.66-2.33,0.98c14.01-5.88,28.8-9.76,43.85-11.81c-0.86,0.12-1.73,0.23-2.59,0.35
					c17.26-2.31,34.78-2.21,52.04,0.09c-0.86-0.12-1.73-0.23-2.59-0.35c17.72,2.4,35.1,7.06,51.59,13.98
					c-0.78-0.33-1.55-0.66-2.33-0.98c14.68,6.2,28.59,14.16,41.23,23.89c-0.66-0.51-1.32-1.02-1.97-1.52
					c10.79,8.34,20.58,17.93,28.94,28.72c-0.51-0.66-1.02-1.32-1.52-1.97c7.04,9.14,13.01,19.09,17.52,29.72
					c-0.33-0.78-0.66-1.55-0.98-2.33c3.97,9.42,6.76,19.31,8.13,29.44c-0.12-0.86-0.23-1.73-0.35-2.59
					c1.21,9.2,1.24,18.52,0.04,27.72c0.12-0.86,0.23-1.73,0.35-2.59C373.41,248.8,373.04,251.03,372.6,253.25
					c-0.51,2.6-0.39,5.17,0.98,7.51c1.18,2.02,3.5,3.95,5.83,4.48c4.84,1.1,10.94-1.46,11.99-6.81c2.98-15.08,2.99-30.26,0.14-45.36
					c-2.7-14.3-8.24-28.17-15.57-40.72c-7.73-13.24-17.65-25.35-28.88-35.77c-12-11.14-25.57-20.7-40.05-28.31
					c-15.48-8.14-32.07-14.35-49.09-18.34c-17.4-4.09-35.44-6.12-53.32-5.71c-16.68,0.38-33.48,2.79-49.51,7.46
					c-15.04,4.38-29.72,10.74-42.93,19.19c-12.46,7.96-23.95,17.75-33.17,29.35c-9.49,11.95-16.87,25.24-21.32,39.89
					c-4.21,13.86-5.75,28.77-4.32,43.19c1.51,15.3,5.76,29.84,12.44,43.68c6.57,13.62,15.6,26.11,25.94,37.12
					c11.02,11.74,23.88,21.89,37.61,30.25c14.69,8.95,30.69,15.92,47.15,20.88c17.24,5.19,35.26,8.15,53.24,8.87
					c16.96,0.67,34.1-0.86,50.67-4.52c15.57-3.44,30.77-9.02,44.8-16.6c13.15-7.11,25.46-16.25,35.74-27.13
					c10.53-11.13,18.72-23.91,24.55-38.05c2.58-6.25,4.53-12.73,5.86-19.36c0.52-2.59,0.38-5.18-0.98-7.51
					c-1.18-2.02-3.5-3.95-5.83-4.48C379.74,245.33,373.68,247.9,372.6,253.25z"/>
			</g>
		</g>
		<g>
			<g>
				<path d="M204.5,140.9c1.06,17.85,2.13,35.7,3.19,53.55c1.06,17.85,2.13,35.7,3.19,53.55c0.6,10.13,1.21,20.26,1.81,30.39
					c0.15,2.59,0.98,5.02,2.86,6.89c1.69,1.69,4.47,2.96,6.89,2.86c2.52-0.11,5.14-0.94,6.89-2.86c1.69-1.84,3.01-4.31,2.86-6.89
					c-1.06-17.85-2.13-35.7-3.19-53.55s-2.13-35.7-3.19-53.55c-0.6-10.13-1.21-20.26-1.81-30.39c-0.15-2.59-0.98-5.02-2.86-6.89
					c-1.69-1.69-4.47-2.96-6.89-2.86c-2.52,0.11-5.14,0.94-6.89,2.86C205.66,135.84,204.35,138.32,204.5,140.9L204.5,140.9z"/>
			</g>
		</g>
		<g>
			<g>
				<path d="M151.83,223.73c17.54-1.84,35.1-3.48,52.67-5c19.13-1.65,38.27-3.16,57.43-4.37c9.37-0.59,18.74-1.11,28.12-1.47
					c2.56-0.1,5.06-1.02,6.89-2.86c1.69-1.69,2.96-4.47,2.86-6.89c-0.23-5.12-4.29-9.96-9.75-9.75c-17.62,0.67-35.22,1.87-52.8,3.19
					c-19.15,1.44-38.28,3.08-57.39,4.88c-9.35,0.88-18.69,1.8-28.03,2.78c-2.66,0.28-4.94,0.9-6.89,2.86
					c-1.69,1.69-2.96,4.47-2.86,6.89c0.11,2.52,0.94,5.14,2.86,6.89C146.72,222.52,149.3,224,151.83,223.73L151.83,223.73z"/>
			</g>
		</g>
	</g>
</g>
</svg>
