<?xml version="1.0" encoding="utf-8"?>
<!-- Generator: Adobe Illustrator 26.2.1, SVG Export Plug-In . SVG Version: 6.00 Build 0)  -->
<svg version="1.1" id="Layer_1" xmlns="http://www.w3.org/2000/svg" xmlns:xlink="http://www.w3.org/1999/xlink" x="0px" y="0px"
	 viewBox="0 0 450 450" style="enable-background:new 0 0 450 450;" xml:space="preserve">
<g>
	<g>
		<g>
			<g>
				<path d="M158.68,118.32c4.63-3.29,9.65-5.98,14.88-8.2c-0.78,0.33-1.55,0.66-2.33,0.98c9.02-3.8,18.57-6.18,28.26-7.49
					c-0.86,0.12-1.73,0.23-2.59,0.35c11.4-1.51,22.98-1.52,34.38,0c-0.86-0.12-1.73-0.23-2.59-0.35c9.21,1.26,18.29,3.52,26.86,7.12
					c-0.78-0.33-1.55-0.66-2.33-0.98c5.94,2.52,11.58,5.68,16.7,9.61c-0.66-0.51-1.32-1.02-1.97-1.52
					c4.08,3.17,7.78,6.79,10.95,10.88c-0.51-0.66-1.02-1.32-1.52-1.97c2.72,3.55,5.01,7.39,6.76,11.51
					c-0.33-0.78-0.66-1.55-0.98-2.33c1.6,3.83,2.72,7.84,3.28,11.96c-0.12-0.86-0.23-1.73-0.35-2.59c0.49,3.85,0.49,7.72-0.03,11.57
					c0.12-0.86,0.23-1.73,0.35-2.59c-0.54,3.8-1.57,7.49-3.06,11.03c0.33-0.78,0.66-1.55,0.98-2.33c-1.59,3.71-3.66,7.17-6.13,10.37
					c0.51-0.66,1.02-1.32,1.52-1.97c-3.68,4.7-8.16,8.64-12.86,12.28c0.66-0.51,1.32-1.02,1.97-1.52
					c-8.41,6.48-17.43,12.13-25.54,19.01c-7.75,6.57-14.39,14.82-18.68,24.07c-4.36,9.41-6.76,19.32-7.21,29.69
					c-0.46,10.84,1.43,21.84,4.38,32.23c3.62,12.73,8.94,24.91,14.13,37.06c0.89,2.08,3.75,3.91,5.83,4.48
					c2.33,0.64,5.44,0.35,7.51-0.98c2.08-1.34,3.91-3.34,4.48-5.83c0.12-0.86,0.23-1.73,0.35-2.59c-0.01-1.76-0.45-3.4-1.33-4.92
					c-0.88-2.06-1.76-4.12-2.63-6.18c0.33,0.78,0.66,1.55,0.98,2.33c-6.04-14.3-11.8-28.96-13.89-44.44
					c0.12,0.86,0.23,1.73,0.35,2.59c-0.87-6.67-0.98-13.39-0.11-20.06c-0.12,0.86-0.23,1.73-0.35,2.59
					c0.77-5.62,2.22-11.11,4.39-16.35c-0.33,0.78-0.66,1.55-0.98,2.33c2.1-4.98,4.83-9.64,8.13-13.92
					c-0.51,0.66-1.02,1.32-1.52,1.97c4.03-5.16,8.83-9.54,14-13.54c-0.66,0.51-1.32,1.02-1.97,1.52
					c15.14-11.65,33.44-21.3,41.64-39.53c3.53-7.85,5.56-16.29,5.1-24.95c-0.46-8.73-2.91-17.13-7.1-24.79
					c-8.91-16.3-24.79-27.17-41.88-33.48c-8.52-3.15-17.37-4.9-26.36-6.05c-8.62-1.11-17.35-1.33-26.01-0.69
					c-17.69,1.3-35.67,5.58-51.02,14.76c-1.6,0.96-3.16,1.98-4.68,3.06c-2.12,1.5-3.77,3.25-4.48,5.83
					c-0.64,2.33-0.35,5.44,0.98,7.51c1.34,2.08,3.34,3.91,5.83,4.48C153.6,119.86,156.57,119.82,158.68,118.32L158.68,118.32z"/>
			</g>
		</g>
		<g>
			<g>
				<path d="M264.65,367.69c5.1,0,9.99-4.48,9.75-9.75c-0.24-5.28-4.28-9.75-9.75-9.75c-5.1,0-9.99,4.48-9.75,9.75
					C255.14,363.22,259.18,367.69,264.65,367.69L264.65,367.69z"/>
			</g>
		</g>
	</g>
</g>
</svg>
